<?xml version="1.0" encoding="UTF-8" standalone="no"?>
<!DOCTYPE svg PUBLIC "-//W3C//DTD SVG 1.1//EN"
 "http://www.w3.org/Graphics/SVG/1.1/DTD/svg11.dtd">
<!-- Generated by graphviz version 2.40.1 (20161225.0304)
 -->
<!-- Title: gomodgraph Pages: 1 -->
<svg width="3542pt" height="548pt"
 viewBox="0.00 0.00 3542.00 548.00" xmlns="http://www.w3.org/2000/svg" xmlns:xlink="http://www.w3.org/1999/xlink">
<g id="graph0" class="graph" transform="scale(1 1) rotate(0) translate(4 544)">
<title>gomodgraph</title>
<polygon fill="#ffffff" stroke="transparent" points="-4,4 -4,-544 3538,-544 3538,4 -4,4"/>
<!-- github.com/CmdrVasquess/stated -->
<g id="node1" class="node">
<title>github.com/CmdrVasquess/stated</title>
<polygon fill="none" stroke="#000000" points="1072,-540 897,-540 897,-504 1072,-504 1072,-540"/>
<text text-anchor="middle" x="984.5" y="-518.9" font-family="Times,serif" font-size="12.00" fill="#000000">github.com/CmdrVasquess/stated</text>
</g>
<!-- git.fractalqb.de/fractalqb/c4hgol@v0.10.3 -->
<g id="node2" class="node">
<title>git.fractalqb.de/fractalqb/c4hgol@v0.10.3</title>
<polygon fill="#00ff00" stroke="#000000" points="892.5,-252 678.5,-252 678.5,-216 892.5,-216 892.5,-252"/>
<text text-anchor="middle" x="785.5" y="-230.9" font-family="Times,serif" font-size="12.00" fill="#000000">git.fractalqb.de/fractalqb/c4hgol@v0.10.3</text>
</g>
<!-- github.com/CmdrVasquess/stated&#45;&gt;git.fractalqb.de/fractalqb/c4hgol@v0.10.3 -->
<g id="edge1" class="edge">
<title>github.com/CmdrVasquess/stated&#45;&gt;git.fractalqb.de/fractalqb/c4hgol@v0.10.3</title>
<path fill="none" stroke="#000000" d="M1005.4544,-503.7898C1051.1992,-461.8929 1151.4362,-356.9776 1093.5,-288 1069.0649,-258.9082 979.2799,-245.4857 902.9083,-239.2948"/>
<polygon fill="#000000" stroke="#000000" points="902.9504,-235.7876 892.7097,-238.5039 902.4091,-242.7667 902.9504,-235.7876"/>
</g>
<!-- git.fractalqb.de/fractalqb/ggja@v0.10.1 -->
<g id="node3" class="node">
<title>git.fractalqb.de/fractalqb/ggja@v0.10.1</title>
<polygon fill="#00ff00" stroke="#000000" points="433.5,-396 231.5,-396 231.5,-360 433.5,-360 433.5,-396"/>
<text text-anchor="middle" x="332.5" y="-374.9" font-family="Times,serif" font-size="12.00" fill="#000000">git.fractalqb.de/fractalqb/ggja@v0.10.1</text>
</g>
<!-- github.com/CmdrVasquess/stated&#45;&gt;git.fractalqb.de/fractalqb/ggja@v0.10.1 -->
<g id="edge2" class="edge">
<title>github.com/CmdrVasquess/stated&#45;&gt;git.fractalqb.de/fractalqb/ggja@v0.10.1</title>
<path fill="none" stroke="#000000" d="M896.9098,-504.8776C844.9718,-494.5604 777.8927,-480.9498 718.5,-468 614.3741,-445.2967 494.9589,-417.1232 416.8648,-398.4077"/>
<polygon fill="#000000" stroke="#000000" points="417.6163,-394.9888 407.0757,-396.0594 415.9834,-401.7957 417.6163,-394.9888"/>
</g>
<!-- git.fractalqb.de/fractalqb/qbsllm@v0.11.1 -->
<g id="node4" class="node">
<title>git.fractalqb.de/fractalqb/qbsllm@v0.11.1</title>
<polygon fill="#00ff00" stroke="#000000" points="213,-396 0,-396 0,-360 213,-360 213,-396"/>
<text text-anchor="middle" x="106.5" y="-374.9" font-family="Times,serif" font-size="12.00" fill="#000000">git.fractalqb.de/fractalqb/qbsllm@v0.11.1</text>
</g>
<!-- github.com/CmdrVasquess/stated&#45;&gt;git.fractalqb.de/fractalqb/qbsllm@v0.11.1 -->
<g id="edge3" class="edge">
<title>github.com/CmdrVasquess/stated&#45;&gt;git.fractalqb.de/fractalqb/qbsllm@v0.11.1</title>
<path fill="none" stroke="#000000" d="M896.729,-512.8393C809.8317,-503.326 673.1176,-487.1645 555.5,-468 430.7073,-447.6664 287.6796,-417.8622 197.2364,-398.2021"/>
<polygon fill="#000000" stroke="#000000" points="197.8063,-394.7442 187.2904,-396.0348 196.3159,-401.5837 197.8063,-394.7442"/>
</g>
<!-- github.com/CmdrVasquess/watched@v0.6.2 -->
<g id="node5" class="node">
<title>github.com/CmdrVasquess/watched@v0.6.2</title>
<polygon fill="#00ff00" stroke="#000000" points="957,-468 728,-468 728,-432 957,-432 957,-468"/>
<text text-anchor="middle" x="842.5" y="-446.9" font-family="Times,serif" font-size="12.00" fill="#000000">github.com/CmdrVasquess/watched@v0.6.2</text>
</g>
<!-- github.com/CmdrVasquess/stated&#45;&gt;github.com/CmdrVasquess/watched@v0.6.2 -->
<g id="edge4" class="edge">
<title>github.com/CmdrVasquess/stated&#45;&gt;github.com/CmdrVasquess/watched@v0.6.2</title>
<path fill="none" stroke="#000000" d="M948.6674,-503.8314C930.0843,-494.4089 907.2011,-482.8062 887.4435,-472.7883"/>
<polygon fill="#000000" stroke="#000000" points="888.823,-469.5635 878.3211,-468.1628 885.6573,-475.8069 888.823,-469.5635"/>
</g>
<!-- golang.org/x/exp@v0.0.0&#45;20201203231725&#45;fa01524bc59d -->
<g id="node6" class="node">
<title>golang.org/x/exp@v0.0.0&#45;20201203231725&#45;fa01524bc59d</title>
<polygon fill="#00ff00" stroke="#000000" points="2159.5,-468 1861.5,-468 1861.5,-432 2159.5,-432 2159.5,-468"/>
<text text-anchor="middle" x="2010.5" y="-446.9" font-family="Times,serif" font-size="12.00" fill="#000000">golang.org/x/exp@v0.0.0&#45;20201203231725&#45;fa01524bc59d</text>
</g>
<!-- github.com/CmdrVasquess/stated&#45;&gt;golang.org/x/exp@v0.0.0&#45;20201203231725&#45;fa01524bc59d -->
<g id="edge5" class="edge">
<title>github.com/CmdrVasquess/stated&#45;&gt;golang.org/x/exp@v0.0.0&#45;20201203231725&#45;fa01524bc59d</title>
<path fill="none" stroke="#000000" d="M1072.4197,-515.8302C1245.4531,-503.6875 1632.3611,-476.5361 1851.39,-461.1656"/>
<polygon fill="#000000" stroke="#000000" points="1851.6382,-464.6569 1861.3687,-460.4654 1851.1481,-457.6741 1851.6382,-464.6569"/>
</g>
<!-- golang.org/x/mod@v0.4.0 -->
<g id="node7" class="node">
<title>golang.org/x/mod@v0.4.0</title>
<polygon fill="#00ff00" stroke="#000000" points="1420.5,-324 1278.5,-324 1278.5,-288 1420.5,-288 1420.5,-324"/>
<text text-anchor="middle" x="1349.5" y="-302.9" font-family="Times,serif" font-size="12.00" fill="#000000">golang.org/x/mod@v0.4.0</text>
</g>
<!-- github.com/CmdrVasquess/stated&#45;&gt;golang.org/x/mod@v0.4.0 -->
<g id="edge6" class="edge">
<title>github.com/CmdrVasquess/stated&#45;&gt;golang.org/x/mod@v0.4.0</title>
<path fill="none" stroke="#000000" d="M1067.5175,-503.9943C1092.6419,-495.8367 1119.1942,-484.2527 1140.5,-468 1186.7628,-432.7093 1169.084,-396.374 1214.5,-360 1231.594,-346.3093 1252.6072,-335.696 1272.9197,-327.6467"/>
<polygon fill="#000000" stroke="#000000" points="1274.3906,-330.8322 1282.4994,-324.0133 1271.9081,-324.2871 1274.3906,-330.8322"/>
</g>
<!-- git.fractalqb.de/fractalqb/qbsllm@v0.11.1&#45;&gt;git.fractalqb.de/fractalqb/c4hgol@v0.10.3 -->
<g id="edge21" class="edge">
<title>git.fractalqb.de/fractalqb/qbsllm@v0.11.1&#45;&gt;git.fractalqb.de/fractalqb/c4hgol@v0.10.3</title>
<path fill="none" stroke="#000000" d="M190.4183,-359.9599C293.7713,-337.7519 463.3899,-301.3407 526.5,-288 580.1044,-276.6687 639.9857,-264.1732 688.6566,-254.0585"/>
<polygon fill="#000000" stroke="#000000" points="689.4716,-257.464 698.5506,-252.0031 688.0477,-250.6104 689.4716,-257.464"/>
</g>
<!-- git.fractalqb.de/fractalqb/c4qblog@v0.9.6 -->
<g id="node21" class="node">
<title>git.fractalqb.de/fractalqb/c4qblog@v0.9.6</title>
<polygon fill="#00ff00" stroke="#000000" points="348.5,-324 134.5,-324 134.5,-288 348.5,-288 348.5,-324"/>
<text text-anchor="middle" x="241.5" y="-302.9" font-family="Times,serif" font-size="12.00" fill="#000000">git.fractalqb.de/fractalqb/c4qblog@v0.9.6</text>
</g>
<!-- git.fractalqb.de/fractalqb/qbsllm@v0.11.1&#45;&gt;git.fractalqb.de/fractalqb/c4qblog@v0.9.6 -->
<g id="edge22" class="edge">
<title>git.fractalqb.de/fractalqb/qbsllm@v0.11.1&#45;&gt;git.fractalqb.de/fractalqb/c4qblog@v0.9.6</title>
<path fill="none" stroke="#000000" d="M140.5662,-359.8314C158.1533,-350.4516 179.7916,-338.9112 198.5168,-328.9244"/>
<polygon fill="#000000" stroke="#000000" points="200.2682,-331.957 207.4447,-324.1628 196.9741,-325.7805 200.2682,-331.957"/>
</g>
<!-- git.fractalqb.de/fractalqb/qblog@v0.10.1 -->
<g id="node22" class="node">
<title>git.fractalqb.de/fractalqb/qblog@v0.10.1</title>
<polygon fill="#00ff00" stroke="#000000" points="279,-252 70,-252 70,-216 279,-216 279,-252"/>
<text text-anchor="middle" x="174.5" y="-230.9" font-family="Times,serif" font-size="12.00" fill="#000000">git.fractalqb.de/fractalqb/qblog@v0.10.1</text>
</g>
<!-- git.fractalqb.de/fractalqb/qbsllm@v0.11.1&#45;&gt;git.fractalqb.de/fractalqb/qblog@v0.10.1 -->
<g id="edge23" class="edge">
<title>git.fractalqb.de/fractalqb/qbsllm@v0.11.1&#45;&gt;git.fractalqb.de/fractalqb/qblog@v0.10.1</title>
<path fill="none" stroke="#000000" d="M107.5418,-359.8257C109.2453,-340.9578 113.7266,-311.0362 125.5,-288 130.7931,-277.6434 138.5981,-267.7654 146.4303,-259.3563"/>
<polygon fill="#000000" stroke="#000000" points="149.0643,-261.6689 153.5595,-252.075 144.0626,-256.7716 149.0643,-261.6689"/>
</g>
<!-- git.fractalqb.de/fractalqb/sllm@v0.12.0 -->
<g id="node23" class="node">
<title>git.fractalqb.de/fractalqb/sllm@v0.12.0</title>
<polygon fill="#00ff00" stroke="#000000" points="737,-324 536,-324 536,-288 737,-288 737,-324"/>
<text text-anchor="middle" x="636.5" y="-302.9" font-family="Times,serif" font-size="12.00" fill="#000000">git.fractalqb.de/fractalqb/sllm@v0.12.0</text>
</g>
<!-- git.fractalqb.de/fractalqb/qbsllm@v0.11.1&#45;&gt;git.fractalqb.de/fractalqb/sllm@v0.12.0 -->
<g id="edge24" class="edge">
<title>git.fractalqb.de/fractalqb/qbsllm@v0.11.1&#45;&gt;git.fractalqb.de/fractalqb/sllm@v0.12.0</title>
<path fill="none" stroke="#000000" d="M213.3058,-361.327C216.4038,-360.8754 219.4737,-360.4321 222.5,-360 237.4471,-357.8658 408.3609,-335.6284 525.855,-320.3645"/>
<polygon fill="#000000" stroke="#000000" points="526.5213,-323.8074 535.987,-319.0483 525.6195,-316.8658 526.5213,-323.8074"/>
</g>
<!-- github.com/CmdrVasquess/watched@v0.6.2&#45;&gt;git.fractalqb.de/fractalqb/c4hgol@v0.10.3 -->
<g id="edge30" class="edge">
<title>github.com/CmdrVasquess/watched@v0.6.2&#45;&gt;git.fractalqb.de/fractalqb/c4hgol@v0.10.3</title>
<path fill="none" stroke="#000000" d="M957.0998,-435.9124C1005.4171,-427.3964 1053.8799,-414.525 1068.5,-396 1098.2368,-358.3208 1099.0954,-324.9854 1068.5,-288 1047.1528,-262.1943 970.7003,-248.6103 902.6352,-241.523"/>
<polygon fill="#000000" stroke="#000000" points="902.9603,-238.0381 892.6612,-240.5238 902.2624,-245.0033 902.9603,-238.0381"/>
</g>
<!-- github.com/CmdrVasquess/watched@v0.6.2&#45;&gt;git.fractalqb.de/fractalqb/ggja@v0.10.1 -->
<g id="edge31" class="edge">
<title>github.com/CmdrVasquess/watched@v0.6.2&#45;&gt;git.fractalqb.de/fractalqb/ggja@v0.10.1</title>
<path fill="none" stroke="#000000" d="M727.7194,-435.3714C650.2733,-425.2958 545.4976,-411.2687 443.9147,-396.1919"/>
<polygon fill="#000000" stroke="#000000" points="444.1849,-392.6936 433.7784,-394.6823 443.1538,-399.6173 444.1849,-392.6936"/>
</g>
<!-- github.com/CmdrVasquess/watched@v0.6.2&#45;&gt;git.fractalqb.de/fractalqb/qbsllm@v0.11.1 -->
<g id="edge33" class="edge">
<title>github.com/CmdrVasquess/watched@v0.6.2&#45;&gt;git.fractalqb.de/fractalqb/qbsllm@v0.11.1</title>
<path fill="none" stroke="#000000" d="M727.9906,-442.3371C605.6369,-433.6205 405.7931,-417.8669 223.3358,-396.0556"/>
<polygon fill="#000000" stroke="#000000" points="223.6297,-392.5658 213.283,-394.8455 222.7931,-399.5156 223.6297,-392.5658"/>
</g>
<!-- github.com/CmdrVasquess/watched@v0.6.2&#45;&gt;git.fractalqb.de/fractalqb/sllm@v0.12.0 -->
<g id="edge34" class="edge">
<title>github.com/CmdrVasquess/watched@v0.6.2&#45;&gt;git.fractalqb.de/fractalqb/sllm@v0.12.0</title>
<path fill="none" stroke="#000000" d="M843.7981,-431.6499C844.1787,-411.495 841.5477,-379.417 823.5,-360 811.3559,-346.9346 777.4246,-335.4615 741.7415,-326.4896"/>
<polygon fill="#000000" stroke="#000000" points="742.1919,-322.9968 731.6472,-324.0261 740.5323,-329.7973 742.1919,-322.9968"/>
</g>
<!-- git.fractalqb.de/fractalqb/gomk@v0.0.0&#45;20201130173917&#45;247026b7cf39 -->
<g id="node29" class="node">
<title>git.fractalqb.de/fractalqb/gomk@v0.0.0&#45;20201130173917&#45;247026b7cf39</title>
<polygon fill="#00ff00" stroke="#000000" points="815,-396 452,-396 452,-360 815,-360 815,-396"/>
<text text-anchor="middle" x="633.5" y="-374.9" font-family="Times,serif" font-size="12.00" fill="#000000">git.fractalqb.de/fractalqb/gomk@v0.0.0&#45;20201130173917&#45;247026b7cf39</text>
</g>
<!-- github.com/CmdrVasquess/watched@v0.6.2&#45;&gt;git.fractalqb.de/fractalqb/gomk@v0.0.0&#45;20201130173917&#45;247026b7cf39 -->
<g id="edge32" class="edge">
<title>github.com/CmdrVasquess/watched@v0.6.2&#45;&gt;git.fractalqb.de/fractalqb/gomk@v0.0.0&#45;20201130173917&#45;247026b7cf39</title>
<path fill="none" stroke="#000000" d="M790.0302,-431.9243C761.3345,-422.0387 725.6112,-409.7321 695.54,-399.3726"/>
<polygon fill="#000000" stroke="#000000" points="696.5861,-396.0312 685.9913,-396.0831 694.306,-402.6495 696.5861,-396.0312"/>
</g>
<!-- github.com/fsnotify/fsnotify@v1.4.9 -->
<g id="node30" class="node">
<title>github.com/fsnotify/fsnotify@v1.4.9</title>
<polygon fill="#00ff00" stroke="#000000" points="1060,-396 871,-396 871,-360 1060,-360 1060,-396"/>
<text text-anchor="middle" x="965.5" y="-374.9" font-family="Times,serif" font-size="12.00" fill="#000000">github.com/fsnotify/fsnotify@v1.4.9</text>
</g>
<!-- github.com/CmdrVasquess/watched@v0.6.2&#45;&gt;github.com/fsnotify/fsnotify@v1.4.9 -->
<g id="edge35" class="edge">
<title>github.com/CmdrVasquess/watched@v0.6.2&#45;&gt;github.com/fsnotify/fsnotify@v1.4.9</title>
<path fill="none" stroke="#000000" d="M873.5381,-431.8314C889.2705,-422.6221 908.5611,-411.3301 925.4044,-401.4706"/>
<polygon fill="#000000" stroke="#000000" points="927.6098,-404.2352 934.4718,-396.1628 924.0735,-398.1941 927.6098,-404.2352"/>
</g>
<!-- dmitri.shuralyov.com/gpu/mtl@v0.0.0&#45;20190408044501&#45;666a987793e9 -->
<g id="node8" class="node">
<title>dmitri.shuralyov.com/gpu/mtl@v0.0.0&#45;20190408044501&#45;666a987793e9</title>
<polygon fill="#00ff00" stroke="#000000" points="1628,-396 1269,-396 1269,-360 1628,-360 1628,-396"/>
<text text-anchor="middle" x="1448.5" y="-374.9" font-family="Times,serif" font-size="12.00" fill="#000000">dmitri.shuralyov.com/gpu/mtl@v0.0.0&#45;20190408044501&#45;666a987793e9</text>
</g>
<!-- golang.org/x/exp@v0.0.0&#45;20201203231725&#45;fa01524bc59d&#45;&gt;dmitri.shuralyov.com/gpu/mtl@v0.0.0&#45;20190408044501&#45;666a987793e9 -->
<g id="edge7" class="edge">
<title>golang.org/x/exp@v0.0.0&#45;20201203231725&#45;fa01524bc59d&#45;&gt;dmitri.shuralyov.com/gpu/mtl@v0.0.0&#45;20190408044501&#45;666a987793e9</title>
<path fill="none" stroke="#000000" d="M1869.7714,-431.9707C1787.4454,-421.4236 1683.5149,-408.1087 1599.4835,-397.3431"/>
<polygon fill="#000000" stroke="#000000" points="1599.7009,-393.8424 1589.3372,-396.0432 1598.8114,-400.7857 1599.7009,-393.8424"/>
</g>
<!-- github.com/BurntSushi/xgb@v0.0.0&#45;20160522181843&#45;27f122750802 -->
<g id="node9" class="node">
<title>github.com/BurntSushi/xgb@v0.0.0&#45;20160522181843&#45;27f122750802</title>
<polygon fill="#00ff00" stroke="#000000" points="1996.5,-396 1646.5,-396 1646.5,-360 1996.5,-360 1996.5,-396"/>
<text text-anchor="middle" x="1821.5" y="-374.9" font-family="Times,serif" font-size="12.00" fill="#000000">github.com/BurntSushi/xgb@v0.0.0&#45;20160522181843&#45;27f122750802</text>
</g>
<!-- golang.org/x/exp@v0.0.0&#45;20201203231725&#45;fa01524bc59d&#45;&gt;github.com/BurntSushi/xgb@v0.0.0&#45;20160522181843&#45;27f122750802 -->
<g id="edge8" class="edge">
<title>golang.org/x/exp@v0.0.0&#45;20201203231725&#45;fa01524bc59d&#45;&gt;github.com/BurntSushi/xgb@v0.0.0&#45;20160522181843&#45;27f122750802</title>
<path fill="none" stroke="#000000" d="M1962.8073,-431.8314C1937.1927,-422.0734 1905.4398,-409.977 1878.526,-399.7242"/>
<polygon fill="#000000" stroke="#000000" points="1879.4406,-396.3273 1868.8497,-396.038 1876.9486,-402.8687 1879.4406,-396.3273"/>
</g>
<!-- github.com/go&#45;gl/glfw/v3.3/glfw@v0.0.0&#45;20200222043503&#45;6f7a984d4dc4 -->
<g id="node10" class="node">
<title>github.com/go&#45;gl/glfw/v3.3/glfw@v0.0.0&#45;20200222043503&#45;6f7a984d4dc4</title>
<polygon fill="#00ff00" stroke="#000000" points="2386.5,-396 2014.5,-396 2014.5,-360 2386.5,-360 2386.5,-396"/>
<text text-anchor="middle" x="2200.5" y="-374.9" font-family="Times,serif" font-size="12.00" fill="#000000">github.com/go&#45;gl/glfw/v3.3/glfw@v0.0.0&#45;20200222043503&#45;6f7a984d4dc4</text>
</g>
<!-- golang.org/x/exp@v0.0.0&#45;20201203231725&#45;fa01524bc59d&#45;&gt;github.com/go&#45;gl/glfw/v3.3/glfw@v0.0.0&#45;20200222043503&#45;6f7a984d4dc4 -->
<g id="edge9" class="edge">
<title>golang.org/x/exp@v0.0.0&#45;20201203231725&#45;fa01524bc59d&#45;&gt;github.com/go&#45;gl/glfw/v3.3/glfw@v0.0.0&#45;20200222043503&#45;6f7a984d4dc4</title>
<path fill="none" stroke="#000000" d="M2058.445,-431.8314C2084.3082,-422.0306 2116.3962,-409.8709 2143.528,-399.5894"/>
<polygon fill="#000000" stroke="#000000" points="2144.7889,-402.8545 2152.8997,-396.038 2142.3084,-396.3087 2144.7889,-402.8545"/>
</g>
<!-- golang.org/x/image@v0.0.0&#45;20190802002840&#45;cff245a6509b -->
<g id="node11" class="node">
<title>golang.org/x/image@v0.0.0&#45;20190802002840&#45;cff245a6509b</title>
<polygon fill="#00ff00" stroke="#000000" points="3534,-252 3227,-252 3227,-216 3534,-216 3534,-252"/>
<text text-anchor="middle" x="3380.5" y="-230.9" font-family="Times,serif" font-size="12.00" fill="#000000">golang.org/x/image@v0.0.0&#45;20190802002840&#45;cff245a6509b</text>
</g>
<!-- golang.org/x/exp@v0.0.0&#45;20201203231725&#45;fa01524bc59d&#45;&gt;golang.org/x/image@v0.0.0&#45;20190802002840&#45;cff245a6509b -->
<g id="edge10" class="edge">
<title>golang.org/x/exp@v0.0.0&#45;20201203231725&#45;fa01524bc59d&#45;&gt;golang.org/x/image@v0.0.0&#45;20190802002840&#45;cff245a6509b</title>
<path fill="none" stroke="#000000" d="M2159.6073,-449.2264C2502.3194,-446.7533 3320.1789,-436.6065 3363.5,-396 3399.6493,-362.1159 3394.2805,-298.7318 3387.291,-262.0982"/>
<polygon fill="#000000" stroke="#000000" points="3390.6721,-261.1653 3385.2122,-252.0857 3383.8182,-262.5884 3390.6721,-261.1653"/>
</g>
<!-- golang.org/x/mobile@v0.0.0&#45;20190719004257&#45;d2bd2a29d028 -->
<g id="node12" class="node">
<title>golang.org/x/mobile@v0.0.0&#45;20190719004257&#45;d2bd2a29d028</title>
<polygon fill="#00ff00" stroke="#000000" points="3354.5,-396 3038.5,-396 3038.5,-360 3354.5,-360 3354.5,-396"/>
<text text-anchor="middle" x="3196.5" y="-374.9" font-family="Times,serif" font-size="12.00" fill="#000000">golang.org/x/mobile@v0.0.0&#45;20190719004257&#45;d2bd2a29d028</text>
</g>
<!-- golang.org/x/exp@v0.0.0&#45;20201203231725&#45;fa01524bc59d&#45;&gt;golang.org/x/mobile@v0.0.0&#45;20190719004257&#45;d2bd2a29d028 -->
<g id="edge11" class="edge">
<title>golang.org/x/exp@v0.0.0&#45;20201203231725&#45;fa01524bc59d&#45;&gt;golang.org/x/mobile@v0.0.0&#45;20190719004257&#45;d2bd2a29d028</title>
<path fill="none" stroke="#000000" d="M2159.8777,-444.5908C2356.3184,-436.9082 2712.4521,-421.0206 3027.9776,-396.0137"/>
<polygon fill="#000000" stroke="#000000" points="3028.5513,-399.4791 3038.2417,-395.1958 3027.9953,-392.5013 3028.5513,-399.4791"/>
</g>
<!-- golang.org/x/mod@v0.3.1&#45;0.20200828183125&#45;ce943fd02449 -->
<g id="node13" class="node">
<title>golang.org/x/mod@v0.3.1&#45;0.20200828183125&#45;ce943fd02449</title>
<polygon fill="#c0c0c0" stroke="#000000" points="1750,-324 1439,-324 1439,-288 1750,-288 1750,-324"/>
<text text-anchor="middle" x="1594.5" y="-302.9" font-family="Times,serif" font-size="12.00" fill="#000000">golang.org/x/mod@v0.3.1&#45;0.20200828183125&#45;ce943fd02449</text>
</g>
<!-- golang.org/x/exp@v0.0.0&#45;20201203231725&#45;fa01524bc59d&#45;&gt;golang.org/x/mod@v0.3.1&#45;0.20200828183125&#45;ce943fd02449 -->
<g id="edge12" class="edge">
<title>golang.org/x/exp@v0.0.0&#45;20201203231725&#45;fa01524bc59d&#45;&gt;golang.org/x/mod@v0.3.1&#45;0.20200828183125&#45;ce943fd02449</title>
<path fill="none" stroke="#000000" d="M1861.2557,-444.9136C1639.8059,-436.6294 1247.8111,-418.8294 1226.5,-396 1215.5819,-384.304 1216.0398,-372.1072 1226.5,-360 1233.6225,-351.7561 1335.5317,-337.1942 1430.2972,-325.2682"/>
<polygon fill="#000000" stroke="#000000" points="1430.8392,-328.7277 1440.3268,-324.0123 1429.9694,-321.782 1430.8392,-328.7277"/>
</g>
<!-- golang.org/x/sys@v0.0.0&#45;20191001151750&#45;bb3f8db39f24 -->
<g id="node14" class="node">
<title>golang.org/x/sys@v0.0.0&#45;20191001151750&#45;bb3f8db39f24</title>
<polygon fill="#c0c0c0" stroke="#000000" points="3020,-396 2725,-396 2725,-360 3020,-360 3020,-396"/>
<text text-anchor="middle" x="2872.5" y="-374.9" font-family="Times,serif" font-size="12.00" fill="#000000">golang.org/x/sys@v0.0.0&#45;20191001151750&#45;bb3f8db39f24</text>
</g>
<!-- golang.org/x/exp@v0.0.0&#45;20201203231725&#45;fa01524bc59d&#45;&gt;golang.org/x/sys@v0.0.0&#45;20191001151750&#45;bb3f8db39f24 -->
<g id="edge13" class="edge">
<title>golang.org/x/exp@v0.0.0&#45;20201203231725&#45;fa01524bc59d&#45;&gt;golang.org/x/sys@v0.0.0&#45;20191001151750&#45;bb3f8db39f24</title>
<path fill="none" stroke="#000000" d="M2159.5217,-440.2232C2299.9384,-430.6302 2516.4703,-414.8583 2714.5822,-396.0683"/>
<polygon fill="#000000" stroke="#000000" points="2714.9764,-399.5467 2724.5995,-395.1141 2714.3126,-392.5782 2714.9764,-399.5467"/>
</g>
<!-- golang.org/x/tools@v0.0.0&#45;20200207183749&#45;b753a1ba74fa -->
<g id="node15" class="node">
<title>golang.org/x/tools@v0.0.0&#45;20200207183749&#45;b753a1ba74fa</title>
<polygon fill="#00ff00" stroke="#000000" points="2706.5,-396 2404.5,-396 2404.5,-360 2706.5,-360 2706.5,-396"/>
<text text-anchor="middle" x="2555.5" y="-374.9" font-family="Times,serif" font-size="12.00" fill="#000000">golang.org/x/tools@v0.0.0&#45;20200207183749&#45;b753a1ba74fa</text>
</g>
<!-- golang.org/x/exp@v0.0.0&#45;20201203231725&#45;fa01524bc59d&#45;&gt;golang.org/x/tools@v0.0.0&#45;20200207183749&#45;b753a1ba74fa -->
<g id="edge14" class="edge">
<title>golang.org/x/exp@v0.0.0&#45;20201203231725&#45;fa01524bc59d&#45;&gt;golang.org/x/tools@v0.0.0&#45;20200207183749&#45;b753a1ba74fa</title>
<path fill="none" stroke="#000000" d="M2146.9717,-431.9707C2226.6451,-421.445 2327.1845,-408.1628 2408.5865,-397.4088"/>
<polygon fill="#000000" stroke="#000000" points="2409.4676,-400.8229 2418.923,-396.0432 2408.5507,-393.8832 2409.4676,-400.8229"/>
</g>
<!-- golang.org/x/xerrors@v0.0.0&#45;20191011141410&#45;1b5146add898 -->
<g id="node16" class="node">
<title>golang.org/x/xerrors@v0.0.0&#45;20191011141410&#45;1b5146add898</title>
<polygon fill="#00ff00" stroke="#000000" points="2278,-252 1961,-252 1961,-216 2278,-216 2278,-252"/>
<text text-anchor="middle" x="2119.5" y="-230.9" font-family="Times,serif" font-size="12.00" fill="#000000">golang.org/x/xerrors@v0.0.0&#45;20191011141410&#45;1b5146add898</text>
</g>
<!-- golang.org/x/exp@v0.0.0&#45;20201203231725&#45;fa01524bc59d&#45;&gt;golang.org/x/xerrors@v0.0.0&#45;20191011141410&#45;1b5146add898 -->
<g id="edge15" class="edge">
<title>golang.org/x/exp@v0.0.0&#45;20201203231725&#45;fa01524bc59d&#45;&gt;golang.org/x/xerrors@v0.0.0&#45;20191011141410&#45;1b5146add898</title>
<path fill="none" stroke="#000000" d="M1861.4046,-444.4398C1648.2483,-435.7543 1279.6906,-417.6945 1259.5,-396 1248.5995,-384.2876 1248.4353,-371.5574 1259.5,-360 1323.0283,-293.6426 2011.0857,-377.8671 2085.5,-324 2105.0867,-309.8215 2113.3937,-282.8985 2116.9147,-262.1787"/>
<polygon fill="#000000" stroke="#000000" points="2120.4181,-262.4013 2118.3541,-252.0094 2113.4871,-261.4202 2120.4181,-262.4013"/>
</g>
<!-- golang.org/x/mod@v0.4.0&#45;&gt;golang.org/x/xerrors@v0.0.0&#45;20191011141410&#45;1b5146add898 -->
<g id="edge18" class="edge">
<title>golang.org/x/mod@v0.4.0&#45;&gt;golang.org/x/xerrors@v0.0.0&#45;20191011141410&#45;1b5146add898</title>
<path fill="none" stroke="#000000" d="M1420.9286,-289.3619C1423.8173,-288.8688 1426.6827,-288.4116 1429.5,-288 1656.3494,-254.8546 1718.1046,-271.8911 1950.6619,-252.0448"/>
<polygon fill="#000000" stroke="#000000" points="1951.1294,-255.5175 1960.7896,-251.1665 1950.5246,-248.5437 1951.1294,-255.5175"/>
</g>
<!-- golang.org/x/crypto@v0.0.0&#45;20191011191535&#45;87dc89f01550 -->
<g id="node17" class="node">
<title>golang.org/x/crypto@v0.0.0&#45;20191011191535&#45;87dc89f01550</title>
<polygon fill="#00ff00" stroke="#000000" points="1943,-252 1632,-252 1632,-216 1943,-216 1943,-252"/>
<text text-anchor="middle" x="1787.5" y="-230.9" font-family="Times,serif" font-size="12.00" fill="#000000">golang.org/x/crypto@v0.0.0&#45;20191011191535&#45;87dc89f01550</text>
</g>
<!-- golang.org/x/mod@v0.4.0&#45;&gt;golang.org/x/crypto@v0.0.0&#45;20191011191535&#45;87dc89f01550 -->
<g id="edge16" class="edge">
<title>golang.org/x/mod@v0.4.0&#45;&gt;golang.org/x/crypto@v0.0.0&#45;20191011191535&#45;87dc89f01550</title>
<path fill="none" stroke="#000000" d="M1420.5453,-289.7375C1423.5672,-289.1335 1426.5617,-288.5514 1429.5,-288 1499.2786,-274.9047 1577.175,-262.8528 1642.4417,-253.4729"/>
<polygon fill="#000000" stroke="#000000" points="1642.9869,-256.9306 1652.3904,-252.0497 1641.9955,-250.0012 1642.9869,-256.9306"/>
</g>
<!-- golang.org/x/tools@v0.0.0&#45;20191119224855&#45;298f0cb1881e -->
<g id="node18" class="node">
<title>golang.org/x/tools@v0.0.0&#45;20191119224855&#45;298f0cb1881e</title>
<polygon fill="#c0c0c0" stroke="#000000" points="1614,-252 1311,-252 1311,-216 1614,-216 1614,-252"/>
<text text-anchor="middle" x="1462.5" y="-230.9" font-family="Times,serif" font-size="12.00" fill="#000000">golang.org/x/tools@v0.0.0&#45;20191119224855&#45;298f0cb1881e</text>
</g>
<!-- golang.org/x/mod@v0.4.0&#45;&gt;golang.org/x/tools@v0.0.0&#45;20191119224855&#45;298f0cb1881e -->
<g id="edge17" class="edge">
<title>golang.org/x/mod@v0.4.0&#45;&gt;golang.org/x/tools@v0.0.0&#45;20191119224855&#45;298f0cb1881e</title>
<path fill="none" stroke="#000000" d="M1378.0147,-287.8314C1392.3342,-278.7074 1409.8624,-267.539 1425.2338,-257.7449"/>
<polygon fill="#000000" stroke="#000000" points="1427.4417,-260.4882 1433.9945,-252.1628 1423.6801,-254.5847 1427.4417,-260.4882"/>
</g>
<!-- golang.org/x/text@v0.3.0 -->
<g id="node25" class="node">
<title>golang.org/x/text@v0.3.0</title>
<polygon fill="#00ff00" stroke="#000000" points="2729.5,-108 2591.5,-108 2591.5,-72 2729.5,-72 2729.5,-108"/>
<text text-anchor="middle" x="2660.5" y="-86.9" font-family="Times,serif" font-size="12.00" fill="#000000">golang.org/x/text@v0.3.0</text>
</g>
<!-- golang.org/x/image@v0.0.0&#45;20190802002840&#45;cff245a6509b&#45;&gt;golang.org/x/text@v0.3.0 -->
<g id="edge42" class="edge">
<title>golang.org/x/image@v0.0.0&#45;20190802002840&#45;cff245a6509b&#45;&gt;golang.org/x/text@v0.3.0</title>
<path fill="none" stroke="#000000" d="M3369.6805,-215.732C3355.9065,-194.3615 3329.9543,-159.886 3297.5,-144 3248.5453,-120.0372 2899.655,-101.0541 2739.9539,-93.5178"/>
<polygon fill="#000000" stroke="#000000" points="2739.8664,-90.01 2729.7135,-93.0381 2739.5387,-97.0023 2739.8664,-90.01"/>
</g>
<!-- golang.org/x/exp@v0.0.0&#45;20190306152737&#45;a1d7652674e8 -->
<g id="node26" class="node">
<title>golang.org/x/exp@v0.0.0&#45;20190306152737&#45;a1d7652674e8</title>
<polygon fill="#c0c0c0" stroke="#000000" points="3169.5,-324 2869.5,-324 2869.5,-288 3169.5,-288 3169.5,-324"/>
<text text-anchor="middle" x="3019.5" y="-302.9" font-family="Times,serif" font-size="12.00" fill="#000000">golang.org/x/exp@v0.0.0&#45;20190306152737&#45;a1d7652674e8</text>
</g>
<!-- golang.org/x/mobile@v0.0.0&#45;20190719004257&#45;d2bd2a29d028&#45;&gt;golang.org/x/exp@v0.0.0&#45;20190306152737&#45;a1d7652674e8 -->
<g id="edge27" class="edge">
<title>golang.org/x/mobile@v0.0.0&#45;20190719004257&#45;d2bd2a29d028&#45;&gt;golang.org/x/exp@v0.0.0&#45;20190306152737&#45;a1d7652674e8</title>
<path fill="none" stroke="#000000" d="M3151.8354,-359.8314C3127.9523,-350.1162 3098.371,-338.0831 3073.2372,-327.8592"/>
<polygon fill="#000000" stroke="#000000" points="3074.4252,-324.564 3063.8434,-324.038 3071.7875,-331.0481 3074.4252,-324.564"/>
</g>
<!-- golang.org/x/image@v0.0.0&#45;20190227222117&#45;0694c2d4d067 -->
<g id="node27" class="node">
<title>golang.org/x/image@v0.0.0&#45;20190227222117&#45;0694c2d4d067</title>
<polygon fill="#c0c0c0" stroke="#000000" points="3288.5,-180 2976.5,-180 2976.5,-144 3288.5,-144 3288.5,-180"/>
<text text-anchor="middle" x="3132.5" y="-158.9" font-family="Times,serif" font-size="12.00" fill="#000000">golang.org/x/image@v0.0.0&#45;20190227222117&#45;0694c2d4d067</text>
</g>
<!-- golang.org/x/mobile@v0.0.0&#45;20190719004257&#45;d2bd2a29d028&#45;&gt;golang.org/x/image@v0.0.0&#45;20190227222117&#45;0694c2d4d067 -->
<g id="edge28" class="edge">
<title>golang.org/x/mobile@v0.0.0&#45;20190719004257&#45;d2bd2a29d028&#45;&gt;golang.org/x/image@v0.0.0&#45;20190227222117&#45;0694c2d4d067</title>
<path fill="none" stroke="#000000" d="M3193.7121,-359.8788C3190.7,-341.5657 3185.3917,-312.546 3178.5,-288 3168.7749,-253.3624 3154.0348,-214.6429 3143.8744,-189.383"/>
<polygon fill="#000000" stroke="#000000" points="3147.0998,-188.0232 3140.0928,-180.0763 3140.6148,-190.6583 3147.0998,-188.0232"/>
</g>
<!-- golang.org/x/sys@v0.0.0&#45;20190312061237&#45;fead79001313 -->
<g id="node28" class="node">
<title>golang.org/x/sys@v0.0.0&#45;20190312061237&#45;fead79001313</title>
<polygon fill="#c0c0c0" stroke="#000000" points="2851.5,-324 2555.5,-324 2555.5,-288 2851.5,-288 2851.5,-324"/>
<text text-anchor="middle" x="2703.5" y="-302.9" font-family="Times,serif" font-size="12.00" fill="#000000">golang.org/x/sys@v0.0.0&#45;20190312061237&#45;fead79001313</text>
</g>
<!-- golang.org/x/mobile@v0.0.0&#45;20190719004257&#45;d2bd2a29d028&#45;&gt;golang.org/x/sys@v0.0.0&#45;20190312061237&#45;fead79001313 -->
<g id="edge29" class="edge">
<title>golang.org/x/mobile@v0.0.0&#45;20190719004257&#45;d2bd2a29d028&#45;&gt;golang.org/x/sys@v0.0.0&#45;20190312061237&#45;fead79001313</title>
<path fill="none" stroke="#000000" d="M3073.0494,-359.9707C3001.2715,-349.4879 2910.7719,-336.2709 2837.2968,-325.5403"/>
<polygon fill="#000000" stroke="#000000" points="2837.4467,-322.0251 2827.0458,-324.0432 2836.435,-328.9517 2837.4467,-322.0251"/>
</g>
<!-- golang.org/x/mod@v0.3.1&#45;0.20200828183125&#45;ce943fd02449&#45;&gt;golang.org/x/xerrors@v0.0.0&#45;20191011141410&#45;1b5146add898 -->
<g id="edge52" class="edge">
<title>golang.org/x/mod@v0.3.1&#45;0.20200828183125&#45;ce943fd02449&#45;&gt;golang.org/x/xerrors@v0.0.0&#45;20191011141410&#45;1b5146add898</title>
<path fill="none" stroke="#000000" d="M1725.9636,-287.9707C1802.7132,-277.445 1899.5631,-264.1628 1977.9778,-253.4088"/>
<polygon fill="#000000" stroke="#000000" points="1978.5033,-256.8695 1987.935,-252.0432 1977.5521,-249.9345 1978.5033,-256.8695"/>
</g>
<!-- golang.org/x/mod@v0.3.1&#45;0.20200828183125&#45;ce943fd02449&#45;&gt;golang.org/x/crypto@v0.0.0&#45;20191011191535&#45;87dc89f01550 -->
<g id="edge50" class="edge">
<title>golang.org/x/mod@v0.3.1&#45;0.20200828183125&#45;ce943fd02449&#45;&gt;golang.org/x/crypto@v0.0.0&#45;20191011191535&#45;87dc89f01550</title>
<path fill="none" stroke="#000000" d="M1643.202,-287.8314C1669.4736,-278.0306 1702.0683,-265.8709 1729.6284,-255.5894"/>
<polygon fill="#000000" stroke="#000000" points="1731.0023,-258.8126 1739.1482,-252.038 1728.5555,-252.2541 1731.0023,-258.8126"/>
</g>
<!-- golang.org/x/mod@v0.3.1&#45;0.20200828183125&#45;ce943fd02449&#45;&gt;golang.org/x/tools@v0.0.0&#45;20191119224855&#45;298f0cb1881e -->
<g id="edge51" class="edge">
<title>golang.org/x/mod@v0.3.1&#45;0.20200828183125&#45;ce943fd02449&#45;&gt;golang.org/x/tools@v0.0.0&#45;20191119224855&#45;298f0cb1881e</title>
<path fill="none" stroke="#000000" d="M1561.1908,-287.8314C1544.0727,-278.4942 1523.0294,-267.016 1504.7778,-257.0606"/>
<polygon fill="#000000" stroke="#000000" points="1506.2535,-253.8788 1495.7985,-252.1628 1502.9015,-260.024 1506.2535,-253.8788"/>
</g>
<!-- golang.org/x/tools@v0.0.0&#45;20200207183749&#45;b753a1ba74fa&#45;&gt;golang.org/x/xerrors@v0.0.0&#45;20191011141410&#45;1b5146add898 -->
<g id="edge39" class="edge">
<title>golang.org/x/tools@v0.0.0&#45;20200207183749&#45;b753a1ba74fa&#45;&gt;golang.org/x/xerrors@v0.0.0&#45;20191011141410&#45;1b5146add898</title>
<path fill="none" stroke="#000000" d="M2479.7344,-359.9269C2441.3243,-350.24 2394.1186,-337.5292 2352.5,-324 2289.4186,-303.4938 2218.5359,-275.3614 2171.6956,-256.0373"/>
<polygon fill="#000000" stroke="#000000" points="2172.9456,-252.7668 2162.3673,-252.1742 2170.2672,-259.2341 2172.9456,-252.7668"/>
</g>
<!-- golang.org/x/mod@v0.1.1&#45;0.20191105210325&#45;c90efee705ee -->
<g id="node31" class="node">
<title>golang.org/x/mod@v0.1.1&#45;0.20191105210325&#45;c90efee705ee</title>
<polygon fill="#c0c0c0" stroke="#000000" points="2076.5,-324 1768.5,-324 1768.5,-288 2076.5,-288 2076.5,-324"/>
<text text-anchor="middle" x="1922.5" y="-302.9" font-family="Times,serif" font-size="12.00" fill="#000000">golang.org/x/mod@v0.1.1&#45;0.20191105210325&#45;c90efee705ee</text>
</g>
<!-- golang.org/x/tools@v0.0.0&#45;20200207183749&#45;b753a1ba74fa&#45;&gt;golang.org/x/mod@v0.1.1&#45;0.20191105210325&#45;c90efee705ee -->
<g id="edge36" class="edge">
<title>golang.org/x/tools@v0.0.0&#45;20200207183749&#45;b753a1ba74fa&#45;&gt;golang.org/x/mod@v0.1.1&#45;0.20191105210325&#45;c90efee705ee</title>
<path fill="none" stroke="#000000" d="M2404.283,-360.8C2308.5523,-349.9112 2184.7793,-335.8327 2086.6591,-324.6721"/>
<polygon fill="#000000" stroke="#000000" points="2086.9742,-321.1855 2076.6427,-323.5328 2086.183,-328.1406 2086.9742,-321.1855"/>
</g>
<!-- golang.org/x/net@v0.0.0&#45;20190620200207&#45;3b0461eec859 -->
<g id="node32" class="node">
<title>golang.org/x/net@v0.0.0&#45;20190620200207&#45;3b0461eec859</title>
<polygon fill="#00ff00" stroke="#000000" points="1951.5,-180 1655.5,-180 1655.5,-144 1951.5,-144 1951.5,-180"/>
<text text-anchor="middle" x="1803.5" y="-158.9" font-family="Times,serif" font-size="12.00" fill="#000000">golang.org/x/net@v0.0.0&#45;20190620200207&#45;3b0461eec859</text>
</g>
<!-- golang.org/x/tools@v0.0.0&#45;20200207183749&#45;b753a1ba74fa&#45;&gt;golang.org/x/net@v0.0.0&#45;20190620200207&#45;3b0461eec859 -->
<g id="edge37" class="edge">
<title>golang.org/x/tools@v0.0.0&#45;20200207183749&#45;b753a1ba74fa&#45;&gt;golang.org/x/net@v0.0.0&#45;20190620200207&#45;3b0461eec859</title>
<path fill="none" stroke="#000000" d="M2533.0973,-359.7883C2488.9811,-325.0513 2386.4325,-249.7857 2286.5,-216 2151.5105,-170.3621 2107.3372,-195.1267 1962.0114,-180.1215"/>
<polygon fill="#000000" stroke="#000000" points="1962.1492,-176.6161 1951.8314,-179.0228 1961.3981,-183.5757 1962.1492,-176.6161"/>
</g>
<!-- golang.org/x/sync@v0.0.0&#45;20190423024810&#45;112230192c58 -->
<g id="node33" class="node">
<title>golang.org/x/sync@v0.0.0&#45;20190423024810&#45;112230192c58</title>
<polygon fill="#00ff00" stroke="#000000" points="2587,-180 2282,-180 2282,-144 2587,-144 2587,-180"/>
<text text-anchor="middle" x="2434.5" y="-158.9" font-family="Times,serif" font-size="12.00" fill="#000000">golang.org/x/sync@v0.0.0&#45;20190423024810&#45;112230192c58</text>
</g>
<!-- golang.org/x/tools@v0.0.0&#45;20200207183749&#45;b753a1ba74fa&#45;&gt;golang.org/x/sync@v0.0.0&#45;20190423024810&#45;112230192c58 -->
<g id="edge38" class="edge">
<title>golang.org/x/tools@v0.0.0&#45;20200207183749&#45;b753a1ba74fa&#45;&gt;golang.org/x/sync@v0.0.0&#45;20190423024810&#45;112230192c58</title>
<path fill="none" stroke="#000000" d="M2545.3917,-359.9555C2524.1278,-321.9967 2474.6724,-233.7127 2449.621,-188.9928"/>
<polygon fill="#000000" stroke="#000000" points="2452.6054,-187.1589 2444.6646,-180.1451 2446.4984,-190.58 2452.6054,-187.1589"/>
</g>
<!-- golang.org/x/net@v0.0.0&#45;20190404232315&#45;eb5bcb51f2a3 -->
<g id="node19" class="node">
<title>golang.org/x/net@v0.0.0&#45;20190404232315&#45;eb5bcb51f2a3</title>
<polygon fill="#c0c0c0" stroke="#000000" points="2263.5,-180 1969.5,-180 1969.5,-144 2263.5,-144 2263.5,-180"/>
<text text-anchor="middle" x="2116.5" y="-158.9" font-family="Times,serif" font-size="12.00" fill="#000000">golang.org/x/net@v0.0.0&#45;20190404232315&#45;eb5bcb51f2a3</text>
</g>
<!-- golang.org/x/crypto@v0.0.0&#45;20191011191535&#45;87dc89f01550&#45;&gt;golang.org/x/net@v0.0.0&#45;20190404232315&#45;eb5bcb51f2a3 -->
<g id="edge19" class="edge">
<title>golang.org/x/crypto@v0.0.0&#45;20191011191535&#45;87dc89f01550&#45;&gt;golang.org/x/net@v0.0.0&#45;20190404232315&#45;eb5bcb51f2a3</title>
<path fill="none" stroke="#000000" d="M1870.0959,-215.9243C1917.0189,-205.6554 1975.8787,-192.7743 2024.303,-182.1768"/>
<polygon fill="#000000" stroke="#000000" points="2025.135,-185.5777 2034.1555,-180.0207 2023.6384,-178.7395 2025.135,-185.5777"/>
</g>
<!-- golang.org/x/sys@v0.0.0&#45;20190412213103&#45;97732733099d -->
<g id="node20" class="node">
<title>golang.org/x/sys@v0.0.0&#45;20190412213103&#45;97732733099d</title>
<polygon fill="#c0c0c0" stroke="#000000" points="2904,-180 2605,-180 2605,-144 2904,-144 2904,-180"/>
<text text-anchor="middle" x="2754.5" y="-158.9" font-family="Times,serif" font-size="12.00" fill="#000000">golang.org/x/sys@v0.0.0&#45;20190412213103&#45;97732733099d</text>
</g>
<!-- golang.org/x/crypto@v0.0.0&#45;20191011191535&#45;87dc89f01550&#45;&gt;golang.org/x/sys@v0.0.0&#45;20190412213103&#45;97732733099d -->
<g id="edge20" class="edge">
<title>golang.org/x/crypto@v0.0.0&#45;20191011191535&#45;87dc89f01550&#45;&gt;golang.org/x/sys@v0.0.0&#45;20190412213103&#45;97732733099d</title>
<path fill="none" stroke="#000000" d="M1943.2963,-216.6968C1946.0518,-216.457 1948.7882,-216.2245 1951.5,-216 2233.8442,-192.6307 2308.1164,-203.8621 2594.4465,-180.058"/>
<polygon fill="#000000" stroke="#000000" points="2595.0498,-183.5198 2604.7223,-179.1963 2594.4648,-176.5442 2595.0498,-183.5198"/>
</g>
<!-- golang.org/x/tools@v0.0.0&#45;20191119224855&#45;298f0cb1881e&#45;&gt;golang.org/x/net@v0.0.0&#45;20190620200207&#45;3b0461eec859 -->
<g id="edge53" class="edge">
<title>golang.org/x/tools@v0.0.0&#45;20191119224855&#45;298f0cb1881e&#45;&gt;golang.org/x/net@v0.0.0&#45;20190620200207&#45;3b0461eec859</title>
<path fill="none" stroke="#000000" d="M1548.1085,-215.9243C1596.8445,-205.634 1658.0045,-192.7205 1708.2544,-182.1105"/>
<polygon fill="#000000" stroke="#000000" points="1709.0909,-185.5111 1718.152,-180.0207 1707.6447,-178.6622 1709.0909,-185.5111"/>
</g>
<!-- golang.org/x/tools@v0.0.0&#45;20191119224855&#45;298f0cb1881e&#45;&gt;golang.org/x/sync@v0.0.0&#45;20190423024810&#45;112230192c58 -->
<g id="edge54" class="edge">
<title>golang.org/x/tools@v0.0.0&#45;20191119224855&#45;298f0cb1881e&#45;&gt;golang.org/x/sync@v0.0.0&#45;20190423024810&#45;112230192c58</title>
<path fill="none" stroke="#000000" d="M1614.0702,-216.7275C1616.9024,-216.4765 1619.7145,-216.2336 1622.5,-216 1907.4405,-192.1008 1982.4157,-203.7047 2271.5199,-180.0506"/>
<polygon fill="#000000" stroke="#000000" points="2272.2171,-183.505 2281.8953,-179.1941 2271.6412,-176.5287 2272.2171,-183.505"/>
</g>
<!-- golang.org/x/xerrors@v0.0.0&#45;20190717185122&#45;a985d3407aa7 -->
<g id="node36" class="node">
<title>golang.org/x/xerrors@v0.0.0&#45;20190717185122&#45;a985d3407aa7</title>
<polygon fill="#c0c0c0" stroke="#000000" points="1620,-180 1305,-180 1305,-144 1620,-144 1620,-180"/>
<text text-anchor="middle" x="1462.5" y="-158.9" font-family="Times,serif" font-size="12.00" fill="#000000">golang.org/x/xerrors@v0.0.0&#45;20190717185122&#45;a985d3407aa7</text>
</g>
<!-- golang.org/x/tools@v0.0.0&#45;20191119224855&#45;298f0cb1881e&#45;&gt;golang.org/x/xerrors@v0.0.0&#45;20190717185122&#45;a985d3407aa7 -->
<g id="edge55" class="edge">
<title>golang.org/x/tools@v0.0.0&#45;20191119224855&#45;298f0cb1881e&#45;&gt;golang.org/x/xerrors@v0.0.0&#45;20190717185122&#45;a985d3407aa7</title>
<path fill="none" stroke="#000000" d="M1462.5,-215.8314C1462.5,-208.131 1462.5,-198.9743 1462.5,-190.4166"/>
<polygon fill="#000000" stroke="#000000" points="1466.0001,-190.4132 1462.5,-180.4133 1459.0001,-190.4133 1466.0001,-190.4132"/>
</g>
<!-- golang.org/x/crypto@v0.0.0&#45;20190308221718&#45;c2843e01d9a2 -->
<g id="node24" class="node">
<title>golang.org/x/crypto@v0.0.0&#45;20190308221718&#45;c2843e01d9a2</title>
<polygon fill="#c0c0c0" stroke="#000000" points="2143.5,-108 1831.5,-108 1831.5,-72 2143.5,-72 2143.5,-108"/>
<text text-anchor="middle" x="1987.5" y="-86.9" font-family="Times,serif" font-size="12.00" fill="#000000">golang.org/x/crypto@v0.0.0&#45;20190308221718&#45;c2843e01d9a2</text>
</g>
<!-- golang.org/x/net@v0.0.0&#45;20190404232315&#45;eb5bcb51f2a3&#45;&gt;golang.org/x/crypto@v0.0.0&#45;20190308221718&#45;c2843e01d9a2 -->
<g id="edge25" class="edge">
<title>golang.org/x/net@v0.0.0&#45;20190404232315&#45;eb5bcb51f2a3&#45;&gt;golang.org/x/crypto@v0.0.0&#45;20190308221718&#45;c2843e01d9a2</title>
<path fill="none" stroke="#000000" d="M2083.9479,-143.8314C2067.2952,-134.5368 2046.8415,-123.1208 2029.0615,-113.1971"/>
<polygon fill="#000000" stroke="#000000" points="2030.4795,-109.9803 2020.0417,-108.1628 2027.0679,-116.0927 2030.4795,-109.9803"/>
</g>
<!-- golang.org/x/net@v0.0.0&#45;20190404232315&#45;eb5bcb51f2a3&#45;&gt;golang.org/x/text@v0.3.0 -->
<g id="edge26" class="edge">
<title>golang.org/x/net@v0.0.0&#45;20190404232315&#45;eb5bcb51f2a3&#45;&gt;golang.org/x/text@v0.3.0</title>
<path fill="none" stroke="#000000" d="M2252.7213,-143.9707C2356.4074,-130.2475 2495.4973,-111.8386 2581.4973,-100.4562"/>
<polygon fill="#000000" stroke="#000000" points="2582.003,-103.9199 2591.4573,-99.138 2581.0845,-96.9804 2582.003,-103.9199"/>
</g>
<!-- git.fractalqb.de/fractalqb/c4qblog@v0.9.6&#45;&gt;git.fractalqb.de/fractalqb/c4hgol@v0.10.3 -->
<g id="edge40" class="edge">
<title>git.fractalqb.de/fractalqb/c4qblog@v0.9.6&#45;&gt;git.fractalqb.de/fractalqb/c4hgol@v0.10.3</title>
<path fill="none" stroke="#000000" d="M348.6522,-291.8181C440.731,-279.6312 573.2775,-262.0883 668.1857,-249.5269"/>
<polygon fill="#000000" stroke="#000000" points="668.6627,-252.9944 678.117,-248.2125 667.7442,-246.0549 668.6627,-252.9944"/>
</g>
<!-- git.fractalqb.de/fractalqb/c4qblog@v0.9.6&#45;&gt;git.fractalqb.de/fractalqb/qblog@v0.10.1 -->
<g id="edge41" class="edge">
<title>git.fractalqb.de/fractalqb/c4qblog@v0.9.6&#45;&gt;git.fractalqb.de/fractalqb/qblog@v0.10.1</title>
<path fill="none" stroke="#000000" d="M224.5931,-287.8314C216.7187,-279.3694 207.208,-269.1489 198.5987,-259.8971"/>
<polygon fill="#000000" stroke="#000000" points="201.0092,-257.3497 191.6346,-252.4133 195.8847,-262.1183 201.0092,-257.3497"/>
</g>
<!-- golang.org/x/sys@v0.0.0&#45;20190215142949&#45;d0b11bdaac8a -->
<g id="node35" class="node">
<title>golang.org/x/sys@v0.0.0&#45;20190215142949&#45;d0b11bdaac8a</title>
<polygon fill="#c0c0c0" stroke="#000000" points="2043.5,-36 1747.5,-36 1747.5,0 2043.5,0 2043.5,-36"/>
<text text-anchor="middle" x="1895.5" y="-14.9" font-family="Times,serif" font-size="12.00" fill="#000000">golang.org/x/sys@v0.0.0&#45;20190215142949&#45;d0b11bdaac8a</text>
</g>
<!-- golang.org/x/crypto@v0.0.0&#45;20190308221718&#45;c2843e01d9a2&#45;&gt;golang.org/x/sys@v0.0.0&#45;20190215142949&#45;d0b11bdaac8a -->
<g id="edge56" class="edge">
<title>golang.org/x/crypto@v0.0.0&#45;20190308221718&#45;c2843e01d9a2&#45;&gt;golang.org/x/sys@v0.0.0&#45;20190215142949&#45;d0b11bdaac8a</title>
<path fill="none" stroke="#000000" d="M1964.2845,-71.8314C1952.953,-62.9632 1939.1536,-52.1637 1926.8973,-42.5718"/>
<polygon fill="#000000" stroke="#000000" points="1928.7402,-39.5697 1918.7081,-36.1628 1924.426,-45.0822 1928.7402,-39.5697"/>
</g>
<!-- golang.org/x/image@v0.0.0&#45;20190227222117&#45;0694c2d4d067&#45;&gt;golang.org/x/text@v0.3.0 -->
<g id="edge43" class="edge">
<title>golang.org/x/image@v0.0.0&#45;20190227222117&#45;0694c2d4d067&#45;&gt;golang.org/x/text@v0.3.0</title>
<path fill="none" stroke="#000000" d="M3014.308,-143.9707C2928.6356,-130.902 2815.1053,-113.5839 2740.0285,-102.1315"/>
<polygon fill="#000000" stroke="#000000" points="2740.1104,-98.6035 2729.6969,-100.5555 2739.0548,-105.5235 2740.1104,-98.6035"/>
</g>
<!-- golang.org/x/sys@v0.0.0&#45;20191005200804&#45;aed5e4c7ecf9 -->
<g id="node34" class="node">
<title>golang.org/x/sys@v0.0.0&#45;20191005200804&#45;aed5e4c7ecf9</title>
<polygon fill="#00ff00" stroke="#000000" points="1060,-324 767,-324 767,-288 1060,-288 1060,-324"/>
<text text-anchor="middle" x="913.5" y="-302.9" font-family="Times,serif" font-size="12.00" fill="#000000">golang.org/x/sys@v0.0.0&#45;20191005200804&#45;aed5e4c7ecf9</text>
</g>
<!-- github.com/fsnotify/fsnotify@v1.4.9&#45;&gt;golang.org/x/sys@v0.0.0&#45;20191005200804&#45;aed5e4c7ecf9 -->
<g id="edge44" class="edge">
<title>github.com/fsnotify/fsnotify@v1.4.9&#45;&gt;golang.org/x/sys@v0.0.0&#45;20191005200804&#45;aed5e4c7ecf9</title>
<path fill="none" stroke="#000000" d="M952.3782,-359.8314C946.4501,-351.6232 939.3271,-341.7606 932.8067,-332.7323"/>
<polygon fill="#000000" stroke="#000000" points="935.4908,-330.4708 926.7985,-324.4133 929.816,-334.5693 935.4908,-330.4708"/>
</g>
<!-- golang.org/x/mod@v0.1.1&#45;0.20191105210325&#45;c90efee705ee&#45;&gt;golang.org/x/xerrors@v0.0.0&#45;20191011141410&#45;1b5146add898 -->
<g id="edge46" class="edge">
<title>golang.org/x/mod@v0.1.1&#45;0.20191105210325&#45;c90efee705ee&#45;&gt;golang.org/x/xerrors@v0.0.0&#45;20191011141410&#45;1b5146add898</title>
<path fill="none" stroke="#000000" d="M1971.9571,-287.9243C1998.7711,-278.1243 2032.0949,-265.945 2060.2847,-255.6422"/>
<polygon fill="#000000" stroke="#000000" points="2061.8316,-258.8033 2070.0225,-252.0831 2059.4287,-252.2286 2061.8316,-258.8033"/>
</g>
<!-- golang.org/x/mod@v0.1.1&#45;0.20191105210325&#45;c90efee705ee&#45;&gt;golang.org/x/crypto@v0.0.0&#45;20191011191535&#45;87dc89f01550 -->
<g id="edge45" class="edge">
<title>golang.org/x/mod@v0.1.1&#45;0.20191105210325&#45;c90efee705ee&#45;&gt;golang.org/x/crypto@v0.0.0&#45;20191011191535&#45;87dc89f01550</title>
<path fill="none" stroke="#000000" d="M1888.4338,-287.8314C1870.8467,-278.4516 1849.2084,-266.9112 1830.4832,-256.9244"/>
<polygon fill="#000000" stroke="#000000" points="1832.0259,-253.7805 1821.5553,-252.1628 1828.7318,-259.957 1832.0259,-253.7805"/>
</g>
<!-- golang.org/x/net@v0.0.0&#45;20190620200207&#45;3b0461eec859&#45;&gt;golang.org/x/crypto@v0.0.0&#45;20190308221718&#45;c2843e01d9a2 -->
<g id="edge47" class="edge">
<title>golang.org/x/net@v0.0.0&#45;20190620200207&#45;3b0461eec859&#45;&gt;golang.org/x/crypto@v0.0.0&#45;20190308221718&#45;c2843e01d9a2</title>
<path fill="none" stroke="#000000" d="M1849.931,-143.8314C1874.868,-134.0734 1905.7809,-121.977 1931.9826,-111.7242"/>
<polygon fill="#000000" stroke="#000000" points="1933.3659,-114.9414 1941.4029,-108.038 1930.8151,-108.4227 1933.3659,-114.9414"/>
</g>
<!-- golang.org/x/net@v0.0.0&#45;20190620200207&#45;3b0461eec859&#45;&gt;golang.org/x/text@v0.3.0 -->
<g id="edge49" class="edge">
<title>golang.org/x/net@v0.0.0&#45;20190620200207&#45;3b0461eec859&#45;&gt;golang.org/x/text@v0.3.0</title>
<path fill="none" stroke="#000000" d="M1951.8178,-144.8468C1954.736,-144.5575 1957.6324,-144.2749 1960.5,-144 2185.2488,-122.4549 2451.2415,-103.8167 2581.1248,-95.1587"/>
<polygon fill="#000000" stroke="#000000" points="2581.6282,-98.6331 2591.374,-94.4774 2581.1639,-91.6485 2581.6282,-98.6331"/>
</g>
<!-- golang.org/x/net@v0.0.0&#45;20190620200207&#45;3b0461eec859&#45;&gt;golang.org/x/sys@v0.0.0&#45;20190215142949&#45;d0b11bdaac8a -->
<g id="edge48" class="edge">
<title>golang.org/x/net@v0.0.0&#45;20190620200207&#45;3b0461eec859&#45;&gt;golang.org/x/sys@v0.0.0&#45;20190215142949&#45;d0b11bdaac8a</title>
<path fill="none" stroke="#000000" d="M1803.6308,-143.6681C1804.5758,-124.3994 1808.4319,-93.901 1822.5,-72 1830.0361,-60.2679 1841.0795,-50.1965 1852.3068,-42.0387"/>
<polygon fill="#000000" stroke="#000000" points="1854.5964,-44.713 1860.8732,-36.1776 1850.6437,-38.9358 1854.5964,-44.713"/>
</g>
</g>
</svg>
