<?xml version="1.0" encoding="UTF-8" standalone="no"?>
<!DOCTYPE svg PUBLIC "-//W3C//DTD SVG 1.1//EN"
 "http://www.w3.org/Graphics/SVG/1.1/DTD/svg11.dtd">
<!-- Generated by graphviz version 2.40.1 (20161225.0304)
 -->
<!-- Title: gomod Pages: 1 -->
<svg width="1789pt" height="1627pt"
 viewBox="0.00 0.00 1789.00 1626.83" xmlns="http://www.w3.org/2000/svg" xmlns:xlink="http://www.w3.org/1999/xlink">
<g id="graph0" class="graph" transform="scale(1 1) rotate(0) translate(4 1622.8305)">
<title>gomod</title>
<polygon fill="#ffffff" stroke="transparent" points="-4,4 -4,-1622.8305 1785,-1622.8305 1785,4 -4,4"/>
<g id="clust1" class="cluster">
<title>cluster_1</title>
<polygon fill="none" stroke="#c0c0c0" points="1524,-369.8305 1524,-552.8305 1773,-552.8305 1773,-369.8305 1524,-369.8305"/>
<text text-anchor="middle" x="1648.5" y="-537.6305" font-family="Times,serif" font-size="14.00" fill="#000000">golang.org/x/sys</text>
</g>
<g id="clust2" class="cluster">
<title>cluster_2</title>
<polygon fill="none" stroke="#c0c0c0" points="1287.5,-415.8305 1287.5,-544.8305 1457.5,-544.8305 1457.5,-415.8305 1287.5,-415.8305"/>
<text text-anchor="middle" x="1372.5" y="-529.6305" font-family="Times,serif" font-size="14.00" fill="#000000">github.com/fsnotify/fsnotify</text>
</g>
<g id="clust3" class="cluster">
<title>cluster_3</title>
<polygon fill="none" stroke="#c0c0c0" points="706,-1466.8305 706,-1595.8305 955,-1595.8305 955,-1466.8305 706,-1466.8305"/>
<text text-anchor="middle" x="830.5" y="-1580.6305" font-family="Times,serif" font-size="14.00" fill="#000000">golang.org/x/image</text>
</g>
<g id="clust4" class="cluster">
<title>cluster_4</title>
<polygon fill="none" stroke="#c0c0c0" points="1003.5,-59.8305 1003.5,-188.8305 1194.5,-188.8305 1194.5,-59.8305 1003.5,-59.8305"/>
<text text-anchor="middle" x="1099" y="-173.6305" font-family="Times,serif" font-size="14.00" fill="#000000">git.fractalqb.de/fractalqb/c4hgol</text>
</g>
<!-- 14 -->
<g id="node1" class="node">
<title>14</title>
<polygon fill="none" stroke="#c0c0c0" points="903.5,-1393.8305 757.5,-1393.8305 757.5,-1355.8305 903.5,-1355.8305 903.5,-1393.8305"/>
<text text-anchor="middle" x="830.5" y="-1378.6305" font-family="Times,serif" font-size="14.00" fill="#000000">github.com/spf13/cobra</text>
<text text-anchor="middle" x="830.5" y="-1363.6305" font-family="Times,serif" font-size="14.00" fill="#000000">v0.0.5</text>
</g>
<!-- 22 -->
<g id="node8" class="node">
<title>22</title>
<polygon fill="none" stroke="#c0c0c0" points="1444.5,-1506.8305 1300.5,-1506.8305 1300.5,-1468.8305 1444.5,-1468.8305 1444.5,-1506.8305"/>
<text text-anchor="middle" x="1372.5" y="-1491.6305" font-family="Times,serif" font-size="14.00" fill="#000000">github.com/spf13/pflag</text>
<text text-anchor="middle" x="1372.5" y="-1476.6305" font-family="Times,serif" font-size="14.00" fill="#000000">v1.0.3</text>
</g>
<!-- 14&#45;&gt;22 -->
<g id="edge30" class="edge">
<title>14&#45;&gt;22</title>
<path fill="none" stroke="#000000" d="M856.7528,-1393.9236C885.9609,-1414.0202 935.3381,-1444.665 983,-1458.8305 1085.849,-1489.3982 1210.3623,-1493.2576 1290.4661,-1491.7471"/>
<polygon fill="#000000" stroke="#000000" points="1290.5751,-1495.2457 1300.4953,-1491.5255 1290.4204,-1488.2474 1290.5751,-1495.2457"/>
</g>
<!-- 23 -->
<g id="node9" class="node">
<title>23</title>
<polygon fill="none" stroke="#c0c0c0" points="1170.5,-1076.8305 1026.5,-1076.8305 1026.5,-1038.8305 1170.5,-1038.8305 1170.5,-1076.8305"/>
<text text-anchor="middle" x="1098.5" y="-1061.6305" font-family="Times,serif" font-size="14.00" fill="#000000">github.com/spf13/viper</text>
<text text-anchor="middle" x="1098.5" y="-1046.6305" font-family="Times,serif" font-size="14.00" fill="#000000">v1.3.2</text>
</g>
<!-- 14&#45;&gt;23 -->
<g id="edge31" class="edge">
<title>14&#45;&gt;23</title>
<path fill="none" stroke="#000000" d="M846.8612,-1355.4779C892.7591,-1301.1883 1022.8204,-1147.347 1075.7103,-1084.787"/>
<polygon fill="#000000" stroke="#000000" points="1078.5696,-1086.8261 1082.353,-1076.9298 1073.2239,-1082.3068 1078.5696,-1086.8261"/>
</g>
<!-- 19 -->
<g id="node14" class="node">
<title>19</title>
<polygon fill="none" stroke="#c0c0c0" points="1201.5,-1543.8305 995.5,-1543.8305 995.5,-1505.8305 1201.5,-1505.8305 1201.5,-1543.8305"/>
<text text-anchor="middle" x="1098.5" y="-1528.6305" font-family="Times,serif" font-size="14.00" fill="#000000">github.com/cpuguy83/go&#45;md2man</text>
<text text-anchor="middle" x="1098.5" y="-1513.6305" font-family="Times,serif" font-size="14.00" fill="#000000">v1.0.10</text>
</g>
<!-- 14&#45;&gt;19 -->
<g id="edge27" class="edge">
<title>14&#45;&gt;19</title>
<path fill="none" stroke="#000000" d="M860.8436,-1393.964C886.8018,-1410.8647 924.6668,-1436.8048 955,-1462.8305 968.5972,-1474.4969 967.6389,-1482.6097 983,-1491.8305 989.2693,-1495.5938 995.988,-1498.9453 1002.9152,-1501.9272"/>
<polygon fill="#000000" stroke="#000000" points="1001.8844,-1505.285 1012.4682,-1505.7682 1004.4958,-1498.7903 1001.8844,-1505.285"/>
</g>
<!-- 18 -->
<g id="node15" class="node">
<title>18</title>
<polygon fill="none" stroke="#c0c0c0" points="1185,-1449.8305 1012,-1449.8305 1012,-1411.8305 1185,-1411.8305 1185,-1449.8305"/>
<text text-anchor="middle" x="1098.5" y="-1434.6305" font-family="Times,serif" font-size="14.00" fill="#000000">github.com/BurntSushi/toml</text>
<text text-anchor="middle" x="1098.5" y="-1419.6305" font-family="Times,serif" font-size="14.00" fill="#000000">v0.3.1</text>
</g>
<!-- 14&#45;&gt;18 -->
<g id="edge26" class="edge">
<title>14&#45;&gt;18</title>
<path fill="none" stroke="#000000" d="M903.7322,-1390.1328C933.9291,-1396.4426 969.3495,-1403.8438 1001.6445,-1410.5921"/>
<polygon fill="#000000" stroke="#000000" points="1001.053,-1414.044 1011.5575,-1412.6634 1002.4848,-1407.192 1001.053,-1414.044"/>
</g>
<!-- 21 -->
<g id="node16" class="node">
<title>21</title>
<polygon fill="none" stroke="#c0c0c0" points="1199.5,-1393.8305 997.5,-1393.8305 997.5,-1355.8305 1199.5,-1355.8305 1199.5,-1393.8305"/>
<text text-anchor="middle" x="1098.5" y="-1378.6305" font-family="Times,serif" font-size="14.00" fill="#000000">github.com/mitchellh/go&#45;homedir</text>
<text text-anchor="middle" x="1098.5" y="-1363.6305" font-family="Times,serif" font-size="14.00" fill="#000000">v1.1.0</text>
</g>
<!-- 14&#45;&gt;21 -->
<g id="edge29" class="edge">
<title>14&#45;&gt;21</title>
<path fill="none" stroke="#000000" d="M903.7322,-1374.8305C929.4746,-1374.8305 959.0131,-1374.8305 987.1754,-1374.8305"/>
<polygon fill="#000000" stroke="#000000" points="987.4791,-1378.3306 997.4791,-1374.8305 987.479,-1371.3306 987.4791,-1378.3306"/>
</g>
<!-- 24 -->
<g id="node17" class="node">
<title>24</title>
<polygon fill="none" stroke="#c0c0c0" points="1429,-1450.8305 1316,-1450.8305 1316,-1412.8305 1429,-1412.8305 1429,-1450.8305"/>
<text text-anchor="middle" x="1372.5" y="-1435.6305" font-family="Times,serif" font-size="14.00" fill="#000000">gopkg.in/yaml.v2</text>
<text text-anchor="middle" x="1372.5" y="-1420.6305" font-family="Times,serif" font-size="14.00" fill="#000000">v2.2.2</text>
</g>
<!-- 14&#45;&gt;24 -->
<g id="edge32" class="edge">
<title>14&#45;&gt;24</title>
<path fill="none" stroke="#000000" d="M857.5792,-1355.7778C924.6498,-1311.1433 1101.2025,-1209.5307 1214,-1290.8305 1255.046,-1320.4148 1213.19,-1364.1171 1250,-1398.8305 1265.2166,-1413.1804 1285.9999,-1421.4251 1306.1264,-1426.1194"/>
<polygon fill="#000000" stroke="#000000" points="1305.4245,-1429.5482 1315.9266,-1428.1499 1306.8447,-1422.6938 1305.4245,-1429.5482"/>
</g>
<!-- 20 -->
<g id="node44" class="node">
<title>20</title>
<polygon fill="none" stroke="#c0c0c0" points="1214,-1337.8305 983,-1337.8305 983,-1299.8305 1214,-1299.8305 1214,-1337.8305"/>
<text text-anchor="middle" x="1098.5" y="-1322.6305" font-family="Times,serif" font-size="14.00" fill="#000000">github.com/inconshreveable/mousetrap</text>
<text text-anchor="middle" x="1098.5" y="-1307.6305" font-family="Times,serif" font-size="14.00" fill="#000000">v1.0.0</text>
</g>
<!-- 14&#45;&gt;20 -->
<g id="edge28" class="edge">
<title>14&#45;&gt;20</title>
<path fill="none" stroke="#000000" d="M903.7322,-1359.5283C932.5403,-1353.5087 966.1025,-1346.4957 997.1697,-1340.004"/>
<polygon fill="#000000" stroke="#000000" points="998.0869,-1343.388 1007.1596,-1337.9166 996.6551,-1336.536 998.0869,-1343.388"/>
</g>
<!-- 27 -->
<g id="node2" class="node">
<title>27</title>
<polygon fill="none" stroke="#c0c0c0" points="1444.5,-1020.8305 1300.5,-1020.8305 1300.5,-982.8305 1444.5,-982.8305 1444.5,-1020.8305"/>
<text text-anchor="middle" x="1372.5" y="-1005.6305" font-family="Times,serif" font-size="14.00" fill="#000000">github.com/coreos/etcd</text>
<text text-anchor="middle" x="1372.5" y="-990.6305" font-family="Times,serif" font-size="14.00" fill="#000000">v3.3.10+incompatible</text>
</g>
<!-- 32 -->
<g id="node3" class="node">
<title>32</title>
<polygon fill="none" stroke="#c0c0c0" points="1473.5,-964.8305 1271.5,-964.8305 1271.5,-926.8305 1473.5,-926.8305 1473.5,-964.8305"/>
<text text-anchor="middle" x="1372.5" y="-949.6305" font-family="Times,serif" font-size="14.00" fill="#000000">github.com/magiconair/properties</text>
<text text-anchor="middle" x="1372.5" y="-934.6305" font-family="Times,serif" font-size="14.00" fill="#000000">v1.8.0</text>
</g>
<!-- 10 -->
<g id="node4" class="node">
<title>10</title>
<polygon fill="none" stroke="#c0c0c0" points="677.5,-1393.8305 486.5,-1393.8305 486.5,-1355.8305 677.5,-1355.8305 677.5,-1393.8305"/>
<text text-anchor="middle" x="582" y="-1378.6305" font-family="Times,serif" font-size="14.00" fill="#000000">github.com/anthonynsimon/bild</text>
<text text-anchor="middle" x="582" y="-1363.6305" font-family="Times,serif" font-size="14.00" fill="#000000">v0.13.0</text>
</g>
<!-- 10&#45;&gt;14 -->
<g id="edge22" class="edge">
<title>10&#45;&gt;14</title>
<path fill="none" stroke="#000000" d="M677.7211,-1374.8305C700.6045,-1374.8305 724.8526,-1374.8305 747.128,-1374.8305"/>
<polygon fill="#000000" stroke="#000000" points="747.2119,-1378.3306 757.2119,-1374.8305 747.2118,-1371.3306 747.2119,-1378.3306"/>
</g>
<!-- 15 -->
<g id="node34" class="node">
<title>15</title>
<text text-anchor="middle" x="830.5" y="-1489.1305" font-family="Times,serif" font-size="14.00" fill="#c0c0c0">v0.0.0&#45;20190703141733&#45;d6a02ce849c9</text>
</g>
<!-- 10&#45;&gt;15 -->
<g id="edge23" class="edge">
<title>10&#45;&gt;15</title>
<path fill="none" stroke="#000000" d="M622.202,-1393.9204C666.1529,-1414.7905 736.5171,-1448.2028 783.1187,-1470.3316"/>
<polygon fill="#000000" stroke="#000000" points="781.861,-1473.6088 792.3956,-1474.7367 784.8636,-1467.2855 781.861,-1473.6088"/>
</g>
<!-- 13 -->
<g id="node5" class="node">
<title>13</title>
<text text-anchor="middle" x="1648.5" y="-392.1305" font-family="Times,serif" font-size="14.00" fill="#000000">v0.0.0&#45;20210220050731&#45;9a76102bfb43</text>
</g>
<!-- 16 -->
<g id="node6" class="node">
<title>16</title>
<text text-anchor="middle" x="1648.5" y="-446.1305" font-family="Times,serif" font-size="14.00" fill="#c0c0c0">v0.0.0&#45;20191005200804&#45;aed5e4c7ecf9</text>
</g>
<!-- 42 -->
<g id="node7" class="node">
<title>42</title>
<text text-anchor="middle" x="1648.5" y="-500.1305" font-family="Times,serif" font-size="14.00" fill="#c0c0c0">v0.0.0&#45;20181205085412&#45;a5c9d58dba9a</text>
</g>
<!-- 23&#45;&gt;27 -->
<g id="edge36" class="edge">
<title>23&#45;&gt;27</title>
<path fill="none" stroke="#000000" d="M1170.8487,-1043.0439C1207.526,-1035.5478 1252.2248,-1026.4123 1290.2096,-1018.649"/>
<polygon fill="#000000" stroke="#000000" points="1291.1248,-1022.0344 1300.2214,-1016.6028 1289.723,-1015.1762 1291.1248,-1022.0344"/>
</g>
<!-- 23&#45;&gt;32 -->
<g id="edge41" class="edge">
<title>23&#45;&gt;32</title>
<path fill="none" stroke="#000000" d="M1127.1988,-1038.6853C1156.815,-1019.7197 1204.9187,-991.0821 1250,-973.8305 1255.5474,-971.7077 1261.3004,-969.7196 1267.1526,-967.8618"/>
<polygon fill="#000000" stroke="#000000" points="1268.5195,-971.1049 1277.0762,-964.8572 1266.491,-964.4053 1268.5195,-971.1049"/>
</g>
<!-- 23&#45;&gt;42 -->
<g id="edge52" class="edge">
<title>23&#45;&gt;42</title>
<path fill="none" stroke="#000000" d="M1100.1326,-1038.5222C1106.4477,-976.9501 1135.0124,-784.023 1250,-693.8305 1336.7018,-625.8245 1396.6171,-705.4574 1495,-655.8305 1553.9601,-626.0895 1604.4313,-565.353 1630.1983,-530.3285"/>
<polygon fill="#000000" stroke="#000000" points="1633.1873,-532.1678 1636.2071,-522.0124 1627.5135,-528.0681 1633.1873,-532.1678"/>
</g>
<!-- 23&#45;&gt;22 -->
<g id="edge47" class="edge">
<title>23&#45;&gt;22</title>
<path fill="none" stroke="#000000" d="M1110.1174,-1077.0514C1133.1893,-1116.0168 1185.0515,-1207.6861 1214,-1290.8305 1239.2515,-1363.3567 1196.1009,-1405.1261 1250,-1459.8305 1260.9273,-1470.9211 1275.2823,-1478.0041 1290.3047,-1482.4521"/>
<polygon fill="#000000" stroke="#000000" points="1289.6869,-1485.907 1300.2437,-1485.0102 1291.4317,-1479.128 1289.6869,-1485.907"/>
</g>
<!-- 31 -->
<g id="node10" class="node">
<title>31</title>
<polygon fill="none" stroke="#c0c0c0" points="1450,-852.8305 1295,-852.8305 1295,-814.8305 1450,-814.8305 1450,-852.8305"/>
<text text-anchor="middle" x="1372.5" y="-837.6305" font-family="Times,serif" font-size="14.00" fill="#000000">github.com/hashicorp/hcl</text>
<text text-anchor="middle" x="1372.5" y="-822.6305" font-family="Times,serif" font-size="14.00" fill="#000000">v1.0.0</text>
</g>
<!-- 23&#45;&gt;31 -->
<g id="edge40" class="edge">
<title>23&#45;&gt;31</title>
<path fill="none" stroke="#000000" d="M1107.5564,-1038.6682C1127.3794,-998.9303 1178.6116,-907.4611 1250,-861.8305 1260.5881,-855.0627 1272.6133,-849.923 1284.8929,-846.0212"/>
<polygon fill="#000000" stroke="#000000" points="1286.1468,-849.3017 1294.7728,-843.15 1284.1934,-842.5798 1286.1468,-849.3017"/>
</g>
<!-- 30 -->
<g id="node13" class="node">
<title>30</title>
<text text-anchor="middle" x="1372.5" y="-492.1305" font-family="Times,serif" font-size="14.00" fill="#c0c0c0">v1.4.7</text>
</g>
<!-- 23&#45;&gt;30 -->
<g id="edge39" class="edge">
<title>23&#45;&gt;30</title>
<path fill="none" stroke="#000000" d="M1101.8084,-1038.7867C1116.6873,-955.0647 1179.7466,-620.4642 1250,-543.8305 1272.2412,-519.5694 1308.2543,-507.4126 1335.4898,-501.4202"/>
<polygon fill="#000000" stroke="#000000" points="1336.3397,-504.8194 1345.4513,-499.413 1334.9569,-497.9573 1336.3397,-504.8194"/>
</g>
<!-- 23&#45;&gt;24 -->
<g id="edge54" class="edge">
<title>23&#45;&gt;24</title>
<path fill="none" stroke="#000000" d="M1112.0291,-1077.0612C1135.8193,-1111.6829 1185.3342,-1187.4627 1214,-1257.8305 1238.4006,-1317.7281 1204.5684,-1352.797 1250,-1398.8305 1264.8249,-1413.8519 1285.7141,-1422.2515 1306.0509,-1426.8821"/>
<polygon fill="#000000" stroke="#000000" points="1305.4687,-1430.3349 1315.961,-1428.8649 1306.8421,-1423.4709 1305.4687,-1430.3349"/>
</g>
<!-- 26 -->
<g id="node18" class="node">
<title>26</title>
<polygon fill="none" stroke="#c0c0c0" points="1489,-796.8305 1256,-796.8305 1256,-758.8305 1489,-758.8305 1489,-796.8305"/>
<text text-anchor="middle" x="1372.5" y="-781.6305" font-family="Times,serif" font-size="14.00" fill="#000000">github.com/armon/consul&#45;api</text>
<text text-anchor="middle" x="1372.5" y="-766.6305" font-family="Times,serif" font-size="14.00" fill="#000000">v0.0.0&#45;20180202201655&#45;eb2c6b5be1b6</text>
</g>
<!-- 23&#45;&gt;26 -->
<g id="edge35" class="edge">
<title>23&#45;&gt;26</title>
<path fill="none" stroke="#000000" d="M1104.164,-1038.7758C1119.3139,-991.2851 1165.4704,-867.0885 1250,-805.8305 1251.8659,-804.4784 1253.7863,-803.1901 1255.7536,-801.9628"/>
<polygon fill="#000000" stroke="#000000" points="1257.6511,-804.9114 1264.6561,-796.9627 1254.2232,-798.8081 1257.6511,-804.9114"/>
</g>
<!-- 35 -->
<g id="node19" class="node">
<title>35</title>
<polygon fill="none" stroke="#c0c0c0" points="1444.5,-740.8305 1300.5,-740.8305 1300.5,-702.8305 1444.5,-702.8305 1444.5,-740.8305"/>
<text text-anchor="middle" x="1372.5" y="-725.6305" font-family="Times,serif" font-size="14.00" fill="#000000">github.com/spf13/afero</text>
<text text-anchor="middle" x="1372.5" y="-710.6305" font-family="Times,serif" font-size="14.00" fill="#000000">v1.1.2</text>
</g>
<!-- 23&#45;&gt;35 -->
<g id="edge44" class="edge">
<title>23&#45;&gt;35</title>
<path fill="none" stroke="#000000" d="M1101.9877,-1038.702C1112.967,-984.2366 1152.0824,-827.2767 1250,-749.8305 1261.6781,-740.594 1275.8362,-734.2922 1290.322,-730.017"/>
<polygon fill="#000000" stroke="#000000" points="1291.5973,-733.3006 1300.3766,-727.3697 1289.815,-726.5312 1291.5973,-733.3006"/>
</g>
<!-- 40 -->
<g id="node20" class="node">
<title>40</title>
<polygon fill="none" stroke="#c0c0c0" points="1495,-646.8305 1250,-646.8305 1250,-608.8305 1495,-608.8305 1495,-646.8305"/>
<text text-anchor="middle" x="1372.5" y="-631.6305" font-family="Times,serif" font-size="14.00" fill="#000000">github.com/xordataexchange/crypt</text>
<text text-anchor="middle" x="1372.5" y="-616.6305" font-family="Times,serif" font-size="14.00" fill="#000000">v0.0.3&#45;0.20170626215501&#45;b2862e3d0a77</text>
</g>
<!-- 23&#45;&gt;40 -->
<g id="edge50" class="edge">
<title>23&#45;&gt;40</title>
<path fill="none" stroke="#000000" d="M1099.8566,-1038.7248C1105.4425,-974.9067 1132.306,-767.1555 1250,-660.8305 1253.5905,-657.5868 1257.4669,-654.6569 1261.5537,-652.0106"/>
<polygon fill="#000000" stroke="#000000" points="1263.3333,-655.0245 1270.2136,-646.9677 1259.8107,-648.9754 1263.3333,-655.0245"/>
</g>
<!-- 41 -->
<g id="node23" class="node">
<title>41</title>
<polygon fill="none" stroke="#c0c0c0" points="1489.5,-590.8305 1255.5,-590.8305 1255.5,-552.8305 1489.5,-552.8305 1489.5,-590.8305"/>
<text text-anchor="middle" x="1372.5" y="-575.6305" font-family="Times,serif" font-size="14.00" fill="#000000">golang.org/x/crypto</text>
<text text-anchor="middle" x="1372.5" y="-560.6305" font-family="Times,serif" font-size="14.00" fill="#000000">v0.0.0&#45;20181203042331&#45;505ab145d0a9</text>
</g>
<!-- 23&#45;&gt;41 -->
<g id="edge51" class="edge">
<title>23&#45;&gt;41</title>
<path fill="none" stroke="#000000" d="M1102.2208,-1038.7852C1117.9445,-960.1955 1181.303,-662.3088 1250,-599.8305 1251.1348,-598.7985 1252.2997,-597.802 1253.4921,-596.8399"/>
<polygon fill="#000000" stroke="#000000" points="1255.6151,-599.6249 1261.7357,-590.9769 1251.558,-593.9205 1255.6151,-599.6249"/>
</g>
<!-- 28 -->
<g id="node25" class="node">
<title>28</title>
<polygon fill="none" stroke="#c0c0c0" points="1453.5,-1356.8305 1291.5,-1356.8305 1291.5,-1318.8305 1453.5,-1318.8305 1453.5,-1356.8305"/>
<text text-anchor="middle" x="1372.5" y="-1341.6305" font-family="Times,serif" font-size="14.00" fill="#000000">github.com/coreos/go&#45;etcd</text>
<text text-anchor="middle" x="1372.5" y="-1326.6305" font-family="Times,serif" font-size="14.00" fill="#000000">v2.0.0+incompatible</text>
</g>
<!-- 23&#45;&gt;28 -->
<g id="edge37" class="edge">
<title>23&#45;&gt;28</title>
<path fill="none" stroke="#000000" d="M1109.4172,-1076.9011C1142.3373,-1134.2825 1239.0463,-1301.8925 1250,-1309.8305 1259.5225,-1316.7314 1270.4663,-1321.9676 1281.8107,-1325.9341"/>
<polygon fill="#000000" stroke="#000000" points="1280.8217,-1329.2921 1291.4118,-1328.976 1282.936,-1322.6191 1280.8217,-1329.2921"/>
</g>
<!-- 34 -->
<g id="node26" class="node">
<title>34</title>
<polygon fill="none" stroke="#c0c0c0" points="1459.5,-1300.8305 1285.5,-1300.8305 1285.5,-1262.8305 1459.5,-1262.8305 1459.5,-1300.8305"/>
<text text-anchor="middle" x="1372.5" y="-1285.6305" font-family="Times,serif" font-size="14.00" fill="#000000">github.com/pelletier/go&#45;toml</text>
<text text-anchor="middle" x="1372.5" y="-1270.6305" font-family="Times,serif" font-size="14.00" fill="#000000">v1.2.0</text>
</g>
<!-- 23&#45;&gt;34 -->
<g id="edge43" class="edge">
<title>23&#45;&gt;34</title>
<path fill="none" stroke="#000000" d="M1107.5564,-1076.9928C1127.3794,-1116.7307 1178.6116,-1208.1999 1250,-1253.8305 1257.9809,-1258.9318 1266.7784,-1263.1082 1275.8858,-1266.5266"/>
<polygon fill="#000000" stroke="#000000" points="1274.873,-1269.8794 1285.4677,-1269.8215 1277.1493,-1263.2598 1274.873,-1269.8794"/>
</g>
<!-- 36 -->
<g id="node29" class="node">
<title>36</title>
<polygon fill="none" stroke="#c0c0c0" points="1441,-908.8305 1304,-908.8305 1304,-870.8305 1441,-870.8305 1441,-908.8305"/>
<text text-anchor="middle" x="1372.5" y="-893.6305" font-family="Times,serif" font-size="14.00" fill="#000000">github.com/spf13/cast</text>
<text text-anchor="middle" x="1372.5" y="-878.6305" font-family="Times,serif" font-size="14.00" fill="#000000">v1.3.0</text>
</g>
<!-- 23&#45;&gt;36 -->
<g id="edge45" class="edge">
<title>23&#45;&gt;36</title>
<path fill="none" stroke="#000000" d="M1113.4729,-1038.6299C1138.3757,-1008.0873 1191.3974,-948.7385 1250,-917.8305 1263.5339,-910.6925 1278.8469,-905.364 1293.9483,-901.3894"/>
<polygon fill="#000000" stroke="#000000" points="1294.9426,-904.7493 1303.8207,-898.9675 1293.2747,-897.9509 1294.9426,-904.7493"/>
</g>
<!-- 37 -->
<g id="node30" class="node">
<title>37</title>
<polygon fill="none" stroke="#c0c0c0" points="1483,-1244.8305 1262,-1244.8305 1262,-1206.8305 1483,-1206.8305 1483,-1244.8305"/>
<text text-anchor="middle" x="1372.5" y="-1229.6305" font-family="Times,serif" font-size="14.00" fill="#000000">github.com/spf13/jwalterweatherman</text>
<text text-anchor="middle" x="1372.5" y="-1214.6305" font-family="Times,serif" font-size="14.00" fill="#000000">v1.0.0</text>
</g>
<!-- 23&#45;&gt;37 -->
<g id="edge46" class="edge">
<title>23&#45;&gt;37</title>
<path fill="none" stroke="#000000" d="M1113.4729,-1077.0312C1138.3757,-1107.5738 1191.3974,-1166.9226 1250,-1197.8305 1253.4824,-1199.6672 1257.0826,-1201.3841 1260.7667,-1202.9889"/>
<polygon fill="#000000" stroke="#000000" points="1259.4948,-1206.2499 1270.0777,-1206.7517 1262.1176,-1199.7598 1259.4948,-1206.2499"/>
</g>
<!-- 39 -->
<g id="node31" class="node">
<title>39</title>
<polygon fill="none" stroke="#c0c0c0" points="1489.5,-1188.8305 1255.5,-1188.8305 1255.5,-1150.8305 1489.5,-1150.8305 1489.5,-1188.8305"/>
<text text-anchor="middle" x="1372.5" y="-1173.6305" font-family="Times,serif" font-size="14.00" fill="#000000">github.com/ugorji/go/codec</text>
<text text-anchor="middle" x="1372.5" y="-1158.6305" font-family="Times,serif" font-size="14.00" fill="#000000">v0.0.0&#45;20181204163529&#45;d75b2dcb6bc8</text>
</g>
<!-- 23&#45;&gt;39 -->
<g id="edge49" class="edge">
<title>23&#45;&gt;39</title>
<path fill="none" stroke="#000000" d="M1127.1988,-1076.9758C1156.815,-1095.9413 1204.9187,-1124.5789 1250,-1141.8305 1255.5474,-1143.9534 1261.3004,-1145.9414 1267.1526,-1147.7993"/>
<polygon fill="#000000" stroke="#000000" points="1266.491,-1151.2558 1277.0762,-1150.8038 1268.5195,-1144.5561 1266.491,-1151.2558"/>
</g>
<!-- 17 -->
<g id="node35" class="node">
<title>17</title>
<polygon fill="none" stroke="#c0c0c0" points="1427.5,-1618.8305 1317.5,-1618.8305 1317.5,-1580.8305 1427.5,-1580.8305 1427.5,-1618.8305"/>
<text text-anchor="middle" x="1372.5" y="-1603.6305" font-family="Times,serif" font-size="14.00" fill="#000000">golang.org/x/text</text>
<text text-anchor="middle" x="1372.5" y="-1588.6305" font-family="Times,serif" font-size="14.00" fill="#000000">v0.3.0</text>
</g>
<!-- 23&#45;&gt;17 -->
<g id="edge53" class="edge">
<title>23&#45;&gt;17</title>
<path fill="none" stroke="#000000" d="M1110.7054,-1076.8602C1134.8343,-1115.4818 1188.5032,-1206.5635 1214,-1290.8305 1232.232,-1351.0875 1207.7015,-1525.2028 1250,-1571.8305 1264.5518,-1587.8718 1286.24,-1595.6823 1307.3412,-1599.2334"/>
<polygon fill="#000000" stroke="#000000" points="1306.9052,-1602.7064 1317.2917,-1600.6159 1307.8685,-1595.773 1306.9052,-1602.7064"/>
</g>
<!-- 38 -->
<g id="node36" class="node">
<title>38</title>
<polygon fill="none" stroke="#c0c0c0" points="1729,-1179.8305 1568,-1179.8305 1568,-1141.8305 1729,-1141.8305 1729,-1179.8305"/>
<text text-anchor="middle" x="1648.5" y="-1164.6305" font-family="Times,serif" font-size="14.00" fill="#000000">github.com/stretchr/testify</text>
<text text-anchor="middle" x="1648.5" y="-1149.6305" font-family="Times,serif" font-size="14.00" fill="#000000">v1.2.2</text>
</g>
<!-- 23&#45;&gt;38 -->
<g id="edge48" class="edge">
<title>23&#45;&gt;38</title>
<path fill="none" stroke="#000000" d="M1111.5767,-1077.0454C1134.6582,-1111.5974 1183.0993,-1187.0385 1214,-1255.8305 1235.0778,-1302.7544 1208.3516,-1335.6388 1250,-1365.8305 1294.0805,-1397.7853 1446.3129,-1390.1978 1495,-1365.8305 1569.4251,-1328.5816 1617.0798,-1236.203 1637.3218,-1189.2306"/>
<polygon fill="#000000" stroke="#000000" points="1640.5814,-1190.5078 1641.2249,-1179.9325 1634.1271,-1187.7984 1640.5814,-1190.5078"/>
</g>
<!-- 29 -->
<g id="node40" class="node">
<title>29</title>
<polygon fill="none" stroke="#c0c0c0" points="1462,-1132.8305 1283,-1132.8305 1283,-1094.8305 1462,-1094.8305 1462,-1132.8305"/>
<text text-anchor="middle" x="1372.5" y="-1117.6305" font-family="Times,serif" font-size="14.00" fill="#000000">github.com/coreos/go&#45;semver</text>
<text text-anchor="middle" x="1372.5" y="-1102.6305" font-family="Times,serif" font-size="14.00" fill="#000000">v0.2.0</text>
</g>
<!-- 23&#45;&gt;29 -->
<g id="edge38" class="edge">
<title>23&#45;&gt;29</title>
<path fill="none" stroke="#000000" d="M1170.8487,-1072.6171C1202.091,-1079.0024 1239.1536,-1086.5773 1272.9289,-1093.4802"/>
<polygon fill="#000000" stroke="#000000" points="1272.3279,-1096.9297 1282.8262,-1095.503 1273.7296,-1090.0714 1272.3279,-1096.9297"/>
</g>
<!-- 33 -->
<g id="node41" class="node">
<title>33</title>
<polygon fill="none" stroke="#c0c0c0" points="1477,-1076.8305 1268,-1076.8305 1268,-1038.8305 1477,-1038.8305 1477,-1076.8305"/>
<text text-anchor="middle" x="1372.5" y="-1061.6305" font-family="Times,serif" font-size="14.00" fill="#000000">github.com/mitchellh/mapstructure</text>
<text text-anchor="middle" x="1372.5" y="-1046.6305" font-family="Times,serif" font-size="14.00" fill="#000000">v1.1.2</text>
</g>
<!-- 23&#45;&gt;33 -->
<g id="edge42" class="edge">
<title>23&#45;&gt;33</title>
<path fill="none" stroke="#000000" d="M1170.8487,-1057.8305C1197.4416,-1057.8305 1228.2514,-1057.8305 1257.6615,-1057.8305"/>
<polygon fill="#000000" stroke="#000000" points="1257.9967,-1061.3306 1267.9966,-1057.8305 1257.9966,-1054.3306 1257.9967,-1061.3306"/>
</g>
<!-- 44 -->
<g id="node37" class="node">
<title>44</title>
<polygon fill="none" stroke="#c0c0c0" points="1737,-852.8305 1560,-852.8305 1560,-814.8305 1737,-814.8305 1737,-852.8305"/>
<text text-anchor="middle" x="1648.5" y="-837.6305" font-family="Times,serif" font-size="14.00" fill="#000000">github.com/davecgh/go&#45;spew</text>
<text text-anchor="middle" x="1648.5" y="-822.6305" font-family="Times,serif" font-size="14.00" fill="#000000">v1.1.1</text>
</g>
<!-- 31&#45;&gt;44 -->
<g id="edge56" class="edge">
<title>31&#45;&gt;44</title>
<path fill="none" stroke="#000000" d="M1450.1159,-833.8305C1481.0375,-833.8305 1516.9975,-833.8305 1549.7425,-833.8305"/>
<polygon fill="#000000" stroke="#000000" points="1549.7924,-837.3306 1559.7924,-833.8305 1549.7923,-830.3306 1549.7924,-837.3306"/>
</g>
<!-- 45 -->
<g id="node11" class="node">
<title>45</title>
<polygon fill="none" stroke="#c0c0c0" points="1741,-908.8305 1556,-908.8305 1556,-870.8305 1741,-870.8305 1741,-908.8305"/>
<text text-anchor="middle" x="1648.5" y="-893.6305" font-family="Times,serif" font-size="14.00" fill="#000000">github.com/pmezard/go&#45;difflib</text>
<text text-anchor="middle" x="1648.5" y="-878.6305" font-family="Times,serif" font-size="14.00" fill="#000000">v1.0.0</text>
</g>
<!-- 11 -->
<g id="node12" class="node">
<title>11</title>
<text text-anchor="middle" x="1372.5" y="-438.1305" font-family="Times,serif" font-size="14.00" fill="#000000">v1.4.9</text>
</g>
<!-- 11&#45;&gt;16 -->
<g id="edge24" class="edge">
<title>11&#45;&gt;16</title>
<path fill="none" stroke="#000000" d="M1399.7193,-442.6195C1428.8604,-443.4642 1477.184,-444.8648 1523.5298,-446.2082"/>
<polygon fill="#000000" stroke="#000000" points="1523.5942,-449.7114 1533.6914,-446.5027 1523.7971,-442.7144 1523.5942,-449.7114"/>
</g>
<!-- 25 -->
<g id="node24" class="node">
<title>25</title>
<polygon fill="none" stroke="#c0c0c0" points="1468,-1562.8305 1277,-1562.8305 1277,-1524.8305 1468,-1524.8305 1468,-1562.8305"/>
<text text-anchor="middle" x="1372.5" y="-1547.6305" font-family="Times,serif" font-size="14.00" fill="#000000">github.com/russross/blackfriday</text>
<text text-anchor="middle" x="1372.5" y="-1532.6305" font-family="Times,serif" font-size="14.00" fill="#000000">v1.5.2</text>
</g>
<!-- 19&#45;&gt;25 -->
<g id="edge34" class="edge">
<title>19&#45;&gt;25</title>
<path fill="none" stroke="#000000" d="M1201.6972,-1531.9865C1222.9128,-1533.4577 1245.2819,-1535.0088 1266.5915,-1536.4865"/>
<polygon fill="#000000" stroke="#000000" points="1266.4093,-1539.9822 1276.6275,-1537.1824 1266.8936,-1532.999 1266.4093,-1539.9822"/>
</g>
<!-- 43 -->
<g id="node42" class="node">
<title>43</title>
<polygon fill="none" stroke="#c0c0c0" points="1766,-1450.8305 1531,-1450.8305 1531,-1412.8305 1766,-1412.8305 1766,-1450.8305"/>
<text text-anchor="middle" x="1648.5" y="-1435.6305" font-family="Times,serif" font-size="14.00" fill="#000000">gopkg.in/check.v1</text>
<text text-anchor="middle" x="1648.5" y="-1420.6305" font-family="Times,serif" font-size="14.00" fill="#000000">v0.0.0&#45;20161208181325&#45;20d25e280405</text>
</g>
<!-- 24&#45;&gt;43 -->
<g id="edge55" class="edge">
<title>24&#45;&gt;43</title>
<path fill="none" stroke="#000000" d="M1429.0187,-1431.8305C1455.5593,-1431.8305 1488.3643,-1431.8305 1520.4485,-1431.8305"/>
<polygon fill="#000000" stroke="#000000" points="1520.8313,-1435.3306 1530.8312,-1431.8305 1520.8312,-1428.3306 1520.8313,-1435.3306"/>
</g>
<!-- 2 -->
<g id="node21" class="node">
<title>2</title>
<polygon fill="none" stroke="#c0c0c0" points="671,-291.8305 493,-291.8305 493,-253.8305 671,-253.8305 671,-291.8305"/>
<text text-anchor="middle" x="582" y="-276.6305" font-family="Times,serif" font-size="14.00" fill="#000000">git.fractalqb.de/fractalqb/ggja</text>
<text text-anchor="middle" x="582" y="-261.6305" font-family="Times,serif" font-size="14.00" fill="#000000">v0.10.2</text>
</g>
<!-- 8 -->
<g id="node22" class="node">
<title>8</title>
<polygon fill="none" stroke="#c0c0c0" points="929.5,-65.8305 731.5,-65.8305 731.5,-27.8305 929.5,-27.8305 929.5,-65.8305"/>
<text text-anchor="middle" x="830.5" y="-50.6305" font-family="Times,serif" font-size="14.00" fill="#000000">git.fractalqb.de/fractalqb/c4qblog</text>
<text text-anchor="middle" x="830.5" y="-35.6305" font-family="Times,serif" font-size="14.00" fill="#000000">v0.9.6</text>
</g>
<!-- 9 -->
<g id="node32" class="node">
<title>9</title>
<polygon fill="none" stroke="#c0c0c0" points="1191,-38.8305 1006,-38.8305 1006,-.8305 1191,-.8305 1191,-38.8305"/>
<text text-anchor="middle" x="1098.5" y="-23.6305" font-family="Times,serif" font-size="14.00" fill="#000000">git.fractalqb.de/fractalqb/qblog</text>
<text text-anchor="middle" x="1098.5" y="-8.6305" font-family="Times,serif" font-size="14.00" fill="#000000">v0.10.1</text>
</g>
<!-- 8&#45;&gt;9 -->
<g id="edge21" class="edge">
<title>8&#45;&gt;9</title>
<path fill="none" stroke="#000000" d="M929.5319,-36.8534C951.0284,-34.6877 973.8159,-32.392 995.463,-30.2111"/>
<polygon fill="#000000" stroke="#000000" points="996.0535,-33.6694 1005.6523,-29.1846 995.3518,-26.7047 996.0535,-33.6694"/>
</g>
<!-- 7 -->
<g id="node46" class="node">
<title>7</title>
<text text-anchor="middle" x="1098.5" y="-82.1305" font-family="Times,serif" font-size="14.00" fill="#c0c0c0">v0.10.3</text>
</g>
<!-- 8&#45;&gt;7 -->
<g id="edge20" class="edge">
<title>8&#45;&gt;7</title>
<path fill="none" stroke="#000000" d="M929.5319,-61.2419C974.6649,-67.8098 1025.4885,-75.2057 1059.5002,-80.1552"/>
<polygon fill="#000000" stroke="#000000" points="1059.0911,-83.6324 1069.4909,-81.6091 1060.0992,-76.7054 1059.0911,-83.6324"/>
</g>
<!-- 3 -->
<g id="node27" class="node">
<title>3</title>
<polygon fill="none" stroke="#c0c0c0" points="675,-235.8305 489,-235.8305 489,-197.8305 675,-197.8305 675,-235.8305"/>
<text text-anchor="middle" x="582" y="-220.6305" font-family="Times,serif" font-size="14.00" fill="#000000">git.fractalqb.de/fractalqb/gomk</text>
<text text-anchor="middle" x="582" y="-205.6305" font-family="Times,serif" font-size="14.00" fill="#000000">v0.1.0</text>
</g>
<!-- 5 -->
<g id="node28" class="node">
<title>5</title>
<polygon fill="none" stroke="#c0c0c0" points="920,-197.8305 741,-197.8305 741,-159.8305 920,-159.8305 920,-197.8305"/>
<text text-anchor="middle" x="830.5" y="-182.6305" font-family="Times,serif" font-size="14.00" fill="#000000">git.fractalqb.de/fractalqb/sllm</text>
<text text-anchor="middle" x="830.5" y="-167.6305" font-family="Times,serif" font-size="14.00" fill="#000000">v0.12.0</text>
</g>
<!-- 36&#45;&gt;45 -->
<g id="edge58" class="edge">
<title>36&#45;&gt;45</title>
<path fill="none" stroke="#000000" d="M1441.0793,-889.8305C1472.6109,-889.8305 1510.6807,-889.8305 1545.5524,-889.8305"/>
<polygon fill="#000000" stroke="#000000" points="1545.7764,-893.3306 1555.7764,-889.8305 1545.7764,-886.3306 1545.7764,-893.3306"/>
</g>
<!-- 36&#45;&gt;38 -->
<g id="edge59" class="edge">
<title>36&#45;&gt;38</title>
<path fill="none" stroke="#000000" d="M1441.2826,-895.8474C1459.9598,-899.9624 1479.3313,-906.7375 1495,-917.8305 1572.698,-972.8386 1619.8399,-1080.816 1638.8168,-1132.2627"/>
<polygon fill="#000000" stroke="#000000" points="1635.5575,-1133.5421 1642.2374,-1141.7658 1642.1438,-1131.1714 1635.5575,-1133.5421"/>
</g>
<!-- 36&#45;&gt;44 -->
<g id="edge57" class="edge">
<title>36&#45;&gt;44</title>
<path fill="none" stroke="#000000" d="M1441.0793,-875.9159C1473.9137,-869.2538 1513.8376,-861.1533 1549.8577,-853.8449"/>
<polygon fill="#000000" stroke="#000000" points="1550.8002,-857.2251 1559.9045,-851.8064 1549.4082,-850.3649 1550.8002,-857.2251"/>
</g>
<!-- 12 -->
<g id="node33" class="node">
<title>12</title>
<text text-anchor="middle" x="830.5" y="-1543.1305" font-family="Times,serif" font-size="14.00" fill="#000000">v0.0.0&#45;20210220032944&#45;ac19c3e999fb</text>
</g>
<!-- 12&#45;&gt;17 -->
<g id="edge25" class="edge">
<title>12&#45;&gt;17</title>
<path fill="none" stroke="#000000" d="M888.9274,-1564.9054C917.0756,-1572.8038 951.4888,-1581.2886 983,-1585.8305 1096.1283,-1602.1363 1229.544,-1603.0193 1307.2216,-1601.7332"/>
<polygon fill="#000000" stroke="#000000" points="1307.4061,-1605.2305 1317.3404,-1601.548 1307.278,-1598.2317 1307.4061,-1605.2305"/>
</g>
<!-- 15&#45;&gt;17 -->
<g id="edge33" class="edge">
<title>15&#45;&gt;17</title>
<path fill="none" stroke="#000000" d="M937.2821,-1510.9549C943.4464,-1513.5324 949.4051,-1516.474 955,-1519.8305 971.4941,-1529.7259 966.0616,-1543.7165 983,-1552.8305 997.0726,-1560.4025 1199.8892,-1582.1365 1307.1164,-1593.1953"/>
<polygon fill="#000000" stroke="#000000" points="1306.8796,-1596.6894 1317.1853,-1594.2314 1307.5961,-1589.7261 1306.8796,-1596.6894"/>
</g>
<!-- 0 -->
<g id="node38" class="node">
<title>0</title>
<polygon fill="none" stroke="#c0c0c0" points="200,-210.8305 0,-210.8305 0,-174.8305 200,-174.8305 200,-210.8305"/>
<text text-anchor="middle" x="100" y="-189.1305" font-family="Times,serif" font-size="14.00" fill="#000000">github.com/CmdrVasquess/stated</text>
</g>
<!-- 0&#45;&gt;2 -->
<g id="edge2" class="edge">
<title>0&#45;&gt;2</title>
<path fill="none" stroke="#000000" d="M192.0995,-210.8778C206.7691,-213.6254 221.7892,-216.364 236,-218.8305 319.0705,-233.2492 413.676,-247.8929 482.9413,-258.2865"/>
<polygon fill="#000000" stroke="#000000" points="482.5644,-261.769 492.9725,-259.7887 483.6011,-254.8462 482.5644,-261.769"/>
</g>
<!-- 0&#45;&gt;3 -->
<g id="edge3" class="edge">
<title>0&#45;&gt;3</title>
<path fill="none" stroke="#000000" d="M200.1634,-197.8179C281.7151,-201.8786 396.4129,-207.5897 478.7789,-211.6909"/>
<polygon fill="#000000" stroke="#000000" points="478.7499,-215.1937 488.9116,-212.1954 479.0981,-208.2024 478.7499,-215.1937"/>
</g>
<!-- 0&#45;&gt;5 -->
<g id="edge5" class="edge">
<title>0&#45;&gt;5</title>
<path fill="none" stroke="#000000" d="M200.0412,-190.9132C339.5653,-188.2393 591.1103,-183.4184 730.5731,-180.7456"/>
<polygon fill="#000000" stroke="#000000" points="730.8981,-184.2401 740.8292,-180.5491 730.7639,-177.2414 730.8981,-184.2401"/>
</g>
<!-- 4 -->
<g id="node39" class="node">
<title>4</title>
<polygon fill="none" stroke="#c0c0c0" points="678,-103.8305 486,-103.8305 486,-65.8305 678,-65.8305 678,-103.8305"/>
<text text-anchor="middle" x="582" y="-88.6305" font-family="Times,serif" font-size="14.00" fill="#000000">git.fractalqb.de/fractalqb/qbsllm</text>
<text text-anchor="middle" x="582" y="-73.6305" font-family="Times,serif" font-size="14.00" fill="#000000">v0.11.1</text>
</g>
<!-- 0&#45;&gt;4 -->
<g id="edge4" class="edge">
<title>0&#45;&gt;4</title>
<path fill="none" stroke="#000000" d="M125.1498,-174.8031C151.4242,-157.0017 194.5217,-130.6399 236,-117.8305 314.0329,-93.7323 406.2662,-85.8911 475.8738,-83.8528"/>
<polygon fill="#000000" stroke="#000000" points="476.0686,-87.3491 485.9752,-83.593 475.8885,-80.3514 476.0686,-87.3491"/>
</g>
<!-- 6 -->
<g id="node43" class="node">
<title>6</title>
<polygon fill="none" stroke="#c0c0c0" points="450,-343.8305 236,-343.8305 236,-305.8305 450,-305.8305 450,-343.8305"/>
<text text-anchor="middle" x="343" y="-328.6305" font-family="Times,serif" font-size="14.00" fill="#000000">github.com/CmdrVasquess/watched</text>
<text text-anchor="middle" x="343" y="-313.6305" font-family="Times,serif" font-size="14.00" fill="#000000">v0.6.4</text>
</g>
<!-- 0&#45;&gt;6 -->
<g id="edge6" class="edge">
<title>0&#45;&gt;6</title>
<path fill="none" stroke="#000000" d="M125.2171,-211.1658C151.8964,-230.075 195.6362,-259.7026 236,-280.8305 250.5156,-288.4286 266.6444,-295.6518 281.8845,-301.9677"/>
<polygon fill="#000000" stroke="#000000" points="280.655,-305.2461 291.2365,-305.7783 283.2964,-298.7636 280.655,-305.2461"/>
</g>
<!-- 1 -->
<g id="node45" class="node">
<title>1</title>
<text text-anchor="middle" x="1098.5" y="-136.1305" font-family="Times,serif" font-size="14.00" fill="#000000">v0.10.4</text>
</g>
<!-- 0&#45;&gt;1 -->
<g id="edge1" class="edge">
<title>0&#45;&gt;1</title>
<path fill="none" stroke="#000000" d="M200.2622,-185.3965C212.3038,-184.5219 224.4283,-183.6499 236,-182.8305 444.8496,-168.0426 496.8687,-160.8764 706,-150.8305 835.2079,-144.6239 988.5233,-141.5746 1059.2145,-140.4122"/>
<polygon fill="#000000" stroke="#000000" points="1059.4911,-143.9083 1069.4336,-140.2479 1059.3786,-136.9092 1059.4911,-143.9083"/>
</g>
<!-- 4&#45;&gt;8 -->
<g id="edge8" class="edge">
<title>4&#45;&gt;8</title>
<path fill="none" stroke="#000000" d="M678.0766,-70.1387C692.2807,-67.9667 707.0033,-65.7153 721.4478,-63.5065"/>
<polygon fill="#000000" stroke="#000000" points="722.0376,-66.9571 731.3936,-61.9856 720.9794,-60.0375 722.0376,-66.9571"/>
</g>
<!-- 4&#45;&gt;5 -->
<g id="edge10" class="edge">
<title>4&#45;&gt;5</title>
<path fill="none" stroke="#000000" d="M632.2877,-103.8528C672.1541,-118.9331 727.9928,-140.0552 770.2481,-156.0391"/>
<polygon fill="#000000" stroke="#000000" points="769.2697,-159.411 779.8612,-159.6754 771.7464,-152.8637 769.2697,-159.411"/>
</g>
<!-- 4&#45;&gt;9 -->
<g id="edge9" class="edge">
<title>4&#45;&gt;9</title>
<path fill="none" stroke="#000000" d="M608.4856,-65.7631C632.5766,-49.6752 669.7978,-27.865 706,-18.8305 802.0558,5.1407 915.5014,1.5813 995.6606,-5.9808"/>
<polygon fill="#000000" stroke="#000000" points="995.4653,-9.4783 1005.7592,-6.9712 996.1486,-2.5118 995.4653,-9.4783"/>
</g>
<!-- 4&#45;&gt;7 -->
<g id="edge7" class="edge">
<title>4&#45;&gt;7</title>
<path fill="none" stroke="#000000" d="M678.2413,-85.0169C792.7613,-85.2386 978.5806,-85.5984 1059.1549,-85.7544"/>
<polygon fill="#000000" stroke="#000000" points="1059.3485,-89.2546 1069.3553,-85.7741 1059.3621,-82.2546 1059.3485,-89.2546"/>
</g>
<!-- 6&#45;&gt;10 -->
<g id="edge16" class="edge">
<title>6&#45;&gt;10</title>
<path fill="none" stroke="#000000" d="M347.3523,-343.9516C376.2362,-470.8472 540.1785,-1191.0958 575.3543,-1345.6338"/>
<polygon fill="#000000" stroke="#000000" points="572.0286,-1346.7932 577.6608,-1355.767 578.854,-1345.2396 572.0286,-1346.7932"/>
</g>
<!-- 6&#45;&gt;13 -->
<g id="edge19" class="edge">
<title>6&#45;&gt;13</title>
<path fill="none" stroke="#000000" d="M423.5597,-343.8572C519.8005,-364.8883 685.9571,-395.8305 830.5,-395.8305 830.5,-395.8305 830.5,-395.8305 1098.5,-395.8305 1243.5276,-395.8305 1410.0662,-395.8305 1521.5415,-395.8305"/>
<polygon fill="#000000" stroke="#000000" points="1521.8186,-399.3306 1531.8185,-395.8305 1521.8185,-392.3306 1521.8186,-399.3306"/>
</g>
<!-- 6&#45;&gt;11 -->
<g id="edge17" class="edge">
<title>6&#45;&gt;11</title>
<path fill="none" stroke="#000000" d="M366.542,-343.9425C393.5341,-364.5743 440.0074,-396.2964 486,-409.8305 802.9052,-503.0852 1211.1177,-462.5323 1335.1446,-446.9328"/>
<polygon fill="#000000" stroke="#000000" points="1335.782,-450.3798 1345.2556,-445.6364 1334.8916,-443.4367 1335.782,-450.3798"/>
</g>
<!-- 6&#45;&gt;2 -->
<g id="edge12" class="edge">
<title>6&#45;&gt;2</title>
<path fill="none" stroke="#000000" d="M430.6377,-305.7629C448.1732,-301.9477 466.6963,-297.9175 484.5401,-294.0352"/>
<polygon fill="#000000" stroke="#000000" points="485.3456,-297.4419 494.3729,-291.8958 483.8574,-290.6019 485.3456,-297.4419"/>
</g>
<!-- 6&#45;&gt;3 -->
<g id="edge13" class="edge">
<title>6&#45;&gt;3</title>
<path fill="none" stroke="#000000" d="M372.407,-305.7691C400.641,-288.1071 444.9412,-262.0414 486,-244.8305 490.6833,-242.8674 495.5497,-240.9873 500.4961,-239.197"/>
<polygon fill="#000000" stroke="#000000" points="501.7832,-242.4551 510.0801,-235.8663 499.4853,-235.843 501.7832,-242.4551"/>
</g>
<!-- 6&#45;&gt;5 -->
<g id="edge15" class="edge">
<title>6&#45;&gt;5</title>
<path fill="none" stroke="#000000" d="M450.2979,-333.1038C517.8563,-334.494 605.6498,-329.1534 678,-300.8305 730.7482,-280.1813 779.5989,-234.5231 807.1732,-205.2933"/>
<polygon fill="#000000" stroke="#000000" points="809.813,-207.5939 814.0434,-197.8803 804.6788,-202.8357 809.813,-207.5939"/>
</g>
<!-- 6&#45;&gt;12 -->
<g id="edge18" class="edge">
<title>6&#45;&gt;12</title>
<path fill="none" stroke="#000000" d="M343.2063,-344.153C344.9334,-474.1708 360.2828,-1221.7837 486,-1402.8305 535.8168,-1474.5723 628.6247,-1510.6856 705.37,-1528.801"/>
<polygon fill="#000000" stroke="#000000" points="704.5962,-1532.2144 715.1244,-1531.028 706.1543,-1525.39 704.5962,-1532.2144"/>
</g>
<!-- 6&#45;&gt;4 -->
<g id="edge14" class="edge">
<title>6&#45;&gt;4</title>
<path fill="none" stroke="#000000" d="M362.1544,-305.596C404.6326,-262.94 506.8103,-160.3348 555.4287,-111.513"/>
<polygon fill="#000000" stroke="#000000" points="558.1781,-113.7122 562.7544,-104.1566 553.218,-108.7728 558.1781,-113.7122"/>
</g>
<!-- 6&#45;&gt;1 -->
<g id="edge11" class="edge">
<title>6&#45;&gt;1</title>
<path fill="none" stroke="#000000" d="M450.1904,-339.5709C516.5389,-345.6272 603.0729,-347.9536 678,-331.8305 829.2315,-299.2879 991.12,-206.8994 1061.8782,-163.2368"/>
<polygon fill="#000000" stroke="#000000" points="1063.803,-166.1615 1070.4491,-157.9104 1060.1082,-160.216 1063.803,-166.1615"/>
</g>
</g>
</svg>
